<?xml version="1.0" encoding="UTF-8"?>
<svg width="96" height="96" viewBox="0 0 96 96" fill="none" xmlns="http://www.w3.org/2000/svg" role="img" aria-label="????????">
  <rect width="96" height="96" rx="18" fill="#FFFFFF"/>
  
  <path d="M30 14h36v34c0 16-8 27-18 34-10-7-18-18-18-34V14Z" fill="#5B2A86" stroke="#D5B15C" stroke-width="3"/>
  <path d="M48 23c8 6 12 14 10 23-1 8-5 14-10 20-5-6-9-12-10-20-2-9 2-17 10-23Z" fill="#D5B15C"/>
  <path d="M48 27v31M40 40h16M42 50c5-3 7-3 12 0" stroke="#5B2A86" stroke-width="3" stroke-linecap="round"/>
  <path d="M24 73c11 7 37 7 48 0" stroke="#D5B15C" stroke-width="4" stroke-linecap="round"/>
  <path d="M31 78c9 4 25 4 34 0" stroke="#8B5FBF" stroke-width="3" stroke-linecap="round"/>
  
</svg>
