<?xml version="1.0" encoding="UTF-8"?>
<svg width="96" height="96" viewBox="0 0 96 96" fill="none" xmlns="http://www.w3.org/2000/svg" role="img" aria-label="??????">
  <rect width="96" height="96" rx="18" fill="#FFFFFF"/>
  
  <path d="M26 16h44v38c0 16-10 26-22 32C36 80 26 70 26 54V16Z" fill="#F5F0D8" stroke="#7A7F88" stroke-width="2"/>
  <path d="M29 19h38v13H29V19Z" fill="#D71920"/>
  <path d="M29 32h19v26H29V32Z" fill="#10864A"/>
  <path d="M48 32h19v26H48V32Z" fill="#F6C343"/>
  <path d="M29 58h38v8c-4 7-11 12-19 16-8-4-15-9-19-16v-8Z" fill="#2F7DBD"/>
  <path d="M36 39h8v12h-8V39ZM52 39h8v12h-8V39Z" fill="#FFFFFF" stroke="#1F2937" stroke-width="1"/>
  <path d="M35 25c5-5 13 1 18-4 4 3 7 4 11 2" stroke="#F6C343" stroke-width="3" stroke-linecap="round"/>
  <path d="M28 72c10 6 30 6 40 0" stroke="#8B8F98" stroke-width="3" stroke-linecap="round"/>
  
</svg>
