<svg id="圖層_1" data-name="圖層 1" xmlns="http://www.w3.org/2000/svg" viewBox="0 0 310.73 73.15"><defs><style>.cls-1,.cls-12,.cls-8{fill:none}.cls-2{fill:#fff}.cls-3,.cls-4{fill:#e60013}.cls-10,.cls-13,.cls-4{fill-rule:evenodd}.cls-5{clip-path:url(#clip-path)}.cls-6{fill:#ed6d00}.cls-7{clip-path:url(#clip-path-2)}.cls-8{stroke:#e16a11;stroke-width:3px}.cls-12,.cls-8{stroke-miterlimit:3.86}.cls-10,.cls-9{fill:#45b035}.cls-11,.cls-13{fill:#004ea2}.cls-12{stroke:#0b4a95;stroke-width:5.78px}</style><clipPath id="clip-path" transform="translate(-23.37 -31.84)"><path class="cls-1" d="M67.72 59.81l-2.27 1.93-.45 1.39 3 3.45.76-.59.08-.55 1.14-.67.63 2.14 1.14-.29a7.67 7.67 0 0 0-4.03-6.81z"/></clipPath><clipPath id="clip-path-2" transform="translate(-23.37 -31.84)"><path class="cls-1" d="M57.29 59.81a7.67 7.67 0 0 0-4 6.81l1.14.29.63-2.14 1.14.67.08.55.76.59L60 63.13l-.42-1.39z"/></clipPath></defs><title>Shue Yan logo with names</title><path class="cls-2" d="M101.32 37.56L93.62 32H31.39l-7.7 5.52 7.42 5.68v30.17a31.39 31.39 0 1 0 62.79 0V43.2z" transform="translate(-23.37 -31.84)"/><path class="cls-3" d="M61.13 70.14h4a.33.33 0 0 1 .33.33.33.33 0 0 1-.33.33h-4a.33.33 0 0 1-.33-.33.33.33 0 0 1 .33-.33zm.8-4.74h2.62a.33.33 0 0 1 .33.33.33.33 0 0 1-.33.33h-2.62a.33.33 0 0 1-.33-.33.33.33 0 0 1 .33-.33z" transform="translate(-23.37 -31.84)"/><path class="cls-4" d="M60.45 71.24a.33.33 0 0 0 .34.29.33.33 0 0 0 .33-.3v-5.65a1.06 1.06 0 0 0-.49-.89 1.06 1.06 0 0 0-1.63.9v5.2a.33.33 0 0 0 .34.28.34.34 0 0 0 .33-.31v-5.17a.4.4 0 0 1 .4-.4.39.39 0 0 1 .39.41z" transform="translate(-23.37 -31.84)"/><g class="cls-5"><path class="cls-6" d="M62.5 61.56A6.45 6.45 0 1 0 69 68a6.46 6.46 0 0 0-6.5-6.44zm0 12.28A5.83 5.83 0 1 1 68.33 68a5.84 5.84 0 0 1-5.83 5.84z" transform="translate(-23.37 -31.84)"/><path class="cls-6" d="M62.5 60.17A7.84 7.84 0 1 0 70.34 68a7.84 7.84 0 0 0-7.84-7.83zm0 15.05A7.22 7.22 0 1 1 69.72 68a7.22 7.22 0 0 1-7.22 7.23z" transform="translate(-23.37 -31.84)"/><path class="cls-6" d="M62.5 58.91A9.1 9.1 0 1 0 71.6 68a9.11 9.11 0 0 0-9.1-9.09zm0 17.58A8.48 8.48 0 1 1 71 68a8.49 8.49 0 0 1-8.5 8.49z" transform="translate(-23.37 -31.84)"/></g><g class="cls-7"><path class="cls-6" d="M62.5 74.46A6.45 6.45 0 1 1 69 68a6.46 6.46 0 0 1-6.5 6.46zm0-12.28A5.83 5.83 0 1 0 68.33 68a5.84 5.84 0 0 0-5.83-5.82z" transform="translate(-23.37 -31.84)"/><path class="cls-6" d="M62.5 75.85A7.84 7.84 0 1 1 70.34 68a7.84 7.84 0 0 1-7.84 7.85zm0-15.05a7.22 7.22 0 1 0 7.22 7.2 7.23 7.23 0 0 0-7.22-7.21z" transform="translate(-23.37 -31.84)"/><path class="cls-6" d="M62.5 77.11A9.1 9.1 0 1 1 71.6 68a9.11 9.11 0 0 1-9.1 9.11zm0-17.57A8.48 8.48 0 1 0 71 68a8.49 8.49 0 0 0-8.5-8.47z" transform="translate(-23.37 -31.84)"/></g><path class="cls-9" d="M62.5 75a.29.29 0 0 1 .29.29v4a.29.29 0 0 1-.29.29.29.29 0 0 1-.29-.29v-4a.29.29 0 0 1 .29-.29z" transform="translate(-23.37 -31.84)"/><path class="cls-10" d="M63.39 75.85v3.48a.26.26 0 0 0 .29.24.26.26 0 0 0 .28-.25v-3.17a3.23 3.23 0 0 0 1.91-.65.3.3 0 0 0 .06-.4c-.14-.2-.41 0-.41 0a2.91 2.91 0 0 1-1.83.53.25.25 0 0 0-.3.22z" transform="translate(-23.37 -31.84)"/><path class="cls-9" d="M64.73 74.16a.29.29 0 0 1-.28.29h-.76a.29.29 0 0 1 0-.59h.76a.28.28 0 0 1 .28.29zm-.67-1.62a.28.28 0 0 1 0 .4l-.55.53a.3.3 0 0 1-.41-.42l.55-.53a.28.28 0 0 1 .4 0z" transform="translate(-23.37 -31.84)"/><path class="cls-10" d="M65.62 74s1.32-.8.08-2.94c0 0-.21.55-.46 1a1.67 1.67 0 0 0 .38 1.94z" transform="translate(-23.37 -31.84)"/><path class="cls-10" d="M66.77 73.12s.65.23.69-1.35a3 3 0 0 0-.55-1.6 4.67 4.67 0 0 0-.5 1.13s-.41 1.76.36 1.82zm.95-1.24a1 1 0 0 0 1.09-1.18 5 5 0 0 0-.57-2.27 6.17 6.17 0 0 1-.57 1.43s-.52.95 0 1.49a.52.52 0 0 1 .05.53z" transform="translate(-23.37 -31.84)"/><path class="cls-10" d="M69.25 68.6A12.37 12.37 0 0 0 68 67s-.27-.4-.61-.29a3.2 3.2 0 0 1 .55 1.3 3.24 3.24 0 0 0 .61 1.72 1.79 1.79 0 0 1 .71.38s.58-.27-.01-1.51zm.59.31s.74.08.69-.9a4.51 4.51 0 0 0-.53-2.17s-.19-.65-.44-.34a3.24 3.24 0 0 0-.19 1.18 5.2 5.2 0 0 0-.1 1.43s.09.74.57.8zm.59.55s.21.44 1.07-.11a2.38 2.38 0 0 0 1-1.81 2.21 2.21 0 0 0-1.87.93s-.47.7-.2.99zM69.19 72s1.45.55 2.33-1.87c0 .02-2.6-.13-2.33 1.87zm-1.3.91a2.44 2.44 0 0 0 3.17-.34 4.77 4.77 0 0 0-3.17.34zm1.85 1.41s-1.07-1.37-3.38-.27a2.48 2.48 0 0 0 3.38.27zm-8.12 1.53v3.48a.27.27 0 0 1-.29.24.26.26 0 0 1-.28-.25v-3.17a3.23 3.23 0 0 1-1.91-.65.3.3 0 0 1-.06-.4c.14-.2.41 0 .41 0a2.9 2.9 0 0 0 1.83.53.25.25 0 0 1 .3.22z" transform="translate(-23.37 -31.84)"/><path class="cls-9" d="M60.28 74.16a.29.29 0 0 0 .28.29h.76a.29.29 0 0 0 0-.59h-.76a.28.28 0 0 0-.28.29zm.8-1.62a.29.29 0 0 0 0 .4l.55.53A.29.29 0 0 0 62 73l-.55-.53a.29.29 0 0 0-.4 0z" transform="translate(-23.37 -31.84)"/><path class="cls-10" d="M59.39 74s-1.33-.8-.08-2.94c0 0 .21.55.46 1a1.67 1.67 0 0 1-.38 1.94z" transform="translate(-23.37 -31.84)"/><path class="cls-10" d="M58.24 73.12s-.65.23-.69-1.35a3 3 0 0 1 .55-1.6 4.65 4.65 0 0 1 .5 1.13s.4 1.76-.36 1.82zm-.95-1.24a1 1 0 0 1-1.09-1.18 5 5 0 0 1 .57-2.27 6.2 6.2 0 0 0 .57 1.43s.53.95 0 1.49a.52.52 0 0 0-.05.53z" transform="translate(-23.37 -31.84)"/><path class="cls-10" d="M55.76 68.6A12.31 12.31 0 0 1 57 67s.27-.4.61-.29a3.2 3.2 0 0 0-.55 1.3 3.24 3.24 0 0 1-.61 1.72 1.79 1.79 0 0 0-.71.38s-.57-.27.02-1.51zm-.59.31s-.74.08-.69-.9a4.51 4.51 0 0 1 .52-2.17s.19-.65.44-.34a3.23 3.23 0 0 1 .19 1.18 5.22 5.22 0 0 1 .11 1.43s-.09.74-.57.8zm-.59.55s-.21.44-1.07-.11a2.38 2.38 0 0 1-1-1.81 2.21 2.21 0 0 1 1.87.93s.47.7.2.99zM55.82 72s-1.45.55-2.33-1.87c-.01.02 2.6-.13 2.33 1.87zm1.3.91a2.44 2.44 0 0 1-3.18-.34 4.77 4.77 0 0 1 3.18.34zm-1.85 1.41s1.07-1.37 3.38-.27a2.48 2.48 0 0 1-3.38.27z" transform="translate(-23.37 -31.84)"/><path class="cls-11" d="M62.5 95.49a21.28 21.28 0 1 1 21.29-21.28A21.31 21.31 0 0 1 62.5 95.49zm0-41.37a20.09 20.09 0 1 0 20.09 20.09A20.11 20.11 0 0 0 62.5 54.12z" transform="translate(-23.37 -31.84)"/><path class="cls-11" d="M62.5 98.16a24 24 0 1 1 24-24 24 24 0 0 1-24 24zm0-46.71a22.76 22.76 0 1 0 22.76 22.76A22.79 22.79 0 0 0 62.5 51.45z" transform="translate(-23.37 -31.84)"/><path class="cls-11" d="M62.55 105A31.62 31.62 0 0 1 31 73.41V43.33l-7.55-5.78 8-5.71h62.23l8 5.71-7.55 5.78v30.08A31.62 31.62 0 0 1 62.55 105zM25.37 37.58l6.74 5.16V73.4a30.39 30.39 0 1 0 60.79 0V42.73l6.74-5.16L93.3 33H31.71z" transform="translate(-23.37 -31.84)"/><path class="cls-4" d="M34.61 38.31a9.41 9.41 0 0 0 1.7.17h.06v-2.09q0-.48-.06-1.15l1.15.2c.26.06.39.16.39.29s-.22.31-.66.51v2.19l.66-.6.87.66a.18.18 0 0 1 .06.15q0 .23-.17.23h-1.42v1.28a3.77 3.77 0 0 1 .93.72 1.19 1.19 0 0 1 .43.74q0 .6-.43.6c-.15 0-.25-.1-.31-.31a3.25 3.25 0 0 0-.29-.66 3.68 3.68 0 0 0-.32-.46v7.12c0 .14-.14.21-.43.21s-.45-.07-.45-.21q.06-1 .06-1.32v-5.07q-.13.34-.27.67a14.15 14.15 0 0 1-1.32 2.26l-.22-.27a18.4 18.4 0 0 0 .86-2.08 16.79 16.79 0 0 0 .49-1.87c.1-.45.19-.91.27-1.37a10 10 0 0 0-1.33.06zm3.79-1.43a9.38 9.38 0 0 0 1.7.17h.27v-.55a6.82 6.82 0 0 0-.06-1.15l1.15.18c.26.08.39.16.39.25s-.22.35-.66.55v.72h.87l.71-.66.88.66a.23.23 0 0 1 .06.17c0 .14-.06.21-.17.21h-2.35V39h.43l.71-.66.87.66a.18.18 0 0 1 .06.15c0 .15-.05.22-.15.22h-2.47a11.84 11.84 0 0 0-1.49.06l-.21-.6a9 9 0 0 0 1.42.15v-1.55h-.27a12.07 12.07 0 0 0-1.49.06zm.32 3.18l1 .55h2.23l.45-.55.81.57a.27.27 0 0 1 .17.25q0 .11-.55.49v1c0 .31.06.51.06.6a.43.43 0 0 1-.11.35.54.54 0 0 1-.38.14q-.36 0-.38-.27v-.17h-2.36v.17c0 .25-.17.38-.5.38s-.38-.08-.38-.22c0-.39.06-.7.06-.93V41.1a5.79 5.79 0 0 0-.12-1.03zm.94 2.62H42V41h-2.34zm-.34 1.26a3.19 3.19 0 0 1 .87.67 1 1 0 0 1 .34.59q0 .6-.43.6c-.11 0-.19-.09-.22-.27a3.85 3.85 0 0 0-.21-.53 3.61 3.61 0 0 0-.56-.78zm2.36-.11a5.85 5.85 0 0 1 1.09.48c.15.06.22.14.22.24s-.26.26-.77.34c-.06.15-.13.31-.21.49s-.13.25-.2.35q1.08-.21 2.16-.46l.17.38q-1.23.44-2.71.83-1.15.32-2.23.55-.14.49-.32.49t-.38-.34l-.39-.93q1.56-.13 3-.39h.08l.17-.51q.11-.38.18-.74c.07-.25.11-.5.14-.77zM43.6 39a9.28 9.28 0 0 0 1.7.17h.06v-2.78c0-.39 0-.78-.06-1.15l1.15.18q.38.08.38.25t-.66.56v2.9l.66-.6.83.65a.13.13 0 0 1 .06.11c0 .15-.06.22-.17.22h-1.38v7.29a1.12 1.12 0 0 1-.42 1 1.51 1.51 0 0 1-.88.29.7.7 0 0 0-.32-.53 3.75 3.75 0 0 0-1.28-.45l.06-.38q1.28.16 1.6.15a.38.38 0 0 0 .43-.43v-6.9h-.06a11.84 11.84 0 0 0-1.49.06zm.17 2a11.11 11.11 0 0 1 .91 1.08 1.39 1.39 0 0 1 .28.79 1 1 0 0 1-.13.5.52.52 0 0 1-.36.15c-.09 0-.17-.09-.22-.28a6.53 6.53 0 0 0-.81-2zm8.35-5.76a6.4 6.4 0 0 1 1.22.39c.17.07.25.15.25.27s-.25.29-.76.43a18.69 18.69 0 0 1-1.12 2.36l.29.1c.22.07.34.14.34.24s-.15.26-.45.43v8.16c0 .25-.15.38-.43.38s-.46 0-.46-.15 0-.59.06-1.37v-6.73A13.15 13.15 0 0 1 49.28 42l-.34-.28a13.85 13.85 0 0 0 1.42-2.08 16.36 16.36 0 0 0 1.12-2.22 10.11 10.11 0 0 0 .64-2.18zm1.47 2.47a10.87 10.87 0 0 0 1.7.17h4.22l.83-.83 1 .8a.26.26 0 0 1 .11.18.2.2 0 0 1-.22.22h-5.94c-.57 0-1.06 0-1.47.06zM52.5 46.1a11.69 11.69 0 0 0 1.7.15h5.92l.88-.87 1.08.83a.31.31 0 0 1 .13.21.2.2 0 0 1-.22.22H54.2q-.86 0-1.47.06zm11-6.96a11.91 11.91 0 0 0 1.7.15h4.1a23 23 0 0 0 .28-2.9q0-.56-.06-1.15l1.28.2c.24.06.36.16.36.29s-.22.38-.66.51a16.12 16.12 0 0 1-.31 3.06h4.21l.87-.87 1.08.83a.3.3 0 0 1 .13.21.2.2 0 0 1-.22.22h-6a11.4 11.4 0 0 0 1 2.26 9.53 9.53 0 0 0 1.6 2.31 10.48 10.48 0 0 0 1.85 1.63 7.49 7.49 0 0 0 1.91.91l-.11.34a.87.87 0 0 0-.63.18c-.23.15-.34.29-.35.42a8 8 0 0 1-1.11-.74 11.42 11.42 0 0 1-2-1.93 12.25 12.25 0 0 1-1.51-2.3A11.09 11.09 0 0 1 70 40.4a12.81 12.81 0 0 1-.84 2.43 10.93 10.93 0 0 1-1.71 2.47 16.44 16.44 0 0 1-3.74 2.65l-.22-.38a12.4 12.4 0 0 0 3.45-2.87 7.46 7.46 0 0 0 1.54-2.36 12.62 12.62 0 0 0 .8-2.65h-4q-.86 0-1.47.06zm18.12-3.01q-.56.17-1.36.35l.1 1.18h.71l.66-.6.81.66a.21.21 0 0 1 .06.11c0 .14-.06.21-.17.21h-2l.1 1.32h.64l.66-.6.81.66a.21.21 0 0 1 .06.11c0 .15-.06.22-.17.22h-2l.1 1.19h7.53l.13-1.19h-1.57l-.21-.6a9.06 9.06 0 0 0 1.7.17h.13l.11-1.32h-.25a12.79 12.79 0 0 0-1.49.06l-.21-.6a9.06 9.06 0 0 0 1.7.17h.29l.13-1.21h-.53a12.53 12.53 0 0 0-1.49.06l-.21-.6a9.06 9.06 0 0 0 1.7.17h.32l.49-.55.66.49c.19.15.28.27.28.38s-.13.36-.39.49L89 40.94h.57l.45-.55.74.59q.3.24.29.41t-.77.27q-.45.49-1 1l-.34-.21a8.29 8.29 0 0 0 .67-1.15H79.13a4.37 4.37 0 0 1-.07.63 1.51 1.51 0 0 1-.34.62.54.54 0 0 1-.39.22q-.45 0-.45-.38a.48.48 0 0 1 .15-.31 2.46 2.46 0 0 0 .49-.72 2.78 2.78 0 0 0 .24-1.22l.38.06v.7h.65l-.36-4.38a4.78 4.78 0 0 0-.11-.92l.81.45a5.17 5.17 0 0 0 .77-.44 3.08 3.08 0 0 0 .66-.57l.8.71a.26.26 0 0 1 .13.22c0 .18-.07.27-.21.27a4.6 4.6 0 0 1-.66-.11zm3.23-.83a5.76 5.76 0 0 1 .86.38c.13.07.2.14.2.22s-.18.18-.55.22c-.09.14-.21.3-.35.48a2.59 2.59 0 0 1 .65.55.72.72 0 0 1 .14.39c0 .22-.09.34-.28.34a.44.44 0 0 1-.35-.2q-.29-.35-.58-.63l-.13.13a4.26 4.26 0 0 1-.63.45 4.1 4.1 0 0 1-.73.31l-.1-.28a2.45 2.45 0 0 0 .57-.39 3 3 0 0 0 .52-.55v-.06A9.49 9.49 0 0 0 83 36l.28-.28c.41.2.78.4 1.09.57l.08-.15a3 3 0 0 0 .39-.84zm0 2.69a4.32 4.32 0 0 1 .86.38c.13.06.2.13.2.21s-.18.18-.55.22a5.85 5.85 0 0 1-.42.49l.15.08a2.76 2.76 0 0 1 .71.53.65.65 0 0 1 .14.38q0 .32-.27.32a.46.46 0 0 1-.36-.18 7.77 7.77 0 0 0-.79-.71l-.18.15a4.23 4.23 0 0 1-.72.45 5 5 0 0 1-.8.29l-.11-.28a3 3 0 0 0 .67-.38 3.21 3.21 0 0 0 .59-.56h.06a10.46 10.46 0 0 0-1-.55l.28-.27q.55.22 1 .45l.14-.21a3 3 0 0 0 .39-.8zm-4.43 4.38a9.1 9.1 0 0 0 1.7.17h4.28L87 42l.81.77a.49.49 0 0 1 .17.38q0 .21-.32.21l-.39-.06q-.5.28-1.36.67l-.67.29c0 .09-.09.18-.28.27V45h3.94l.83-.81 1 .81a.23.23 0 0 1 .06.17c0 .15-.07.22-.21.22H85v1.75a.71.71 0 0 1-.42.63 1.45 1.45 0 0 1-.79.29.73.73 0 0 0-.69-.63l-.84-.14.06-.38a13 13 0 0 0 1.53.17c.22 0 .34-.09.34-.28v-1.36h-4.44a11.87 11.87 0 0 0-1.47.06l-.22-.6a10.29 10.29 0 0 0 1.7.15h4.39v-.27a10 10 0 0 0-.06-1.09l.69.28a4.92 4.92 0 0 0 .63-.38 6.7 6.7 0 0 0 .93-.67h-4.23a12.53 12.53 0 0 0-1.47.06z" transform="translate(-23.37 -31.84)"/><path class="cls-13" d="M44.93 73.56l.08.61a.75.75 0 0 0-.44.24.68.68 0 0 0-.13.46.7.7 0 0 0 .14.45.39.39 0 0 0 .31.14.28.28 0 0 0 .18-.07.52.52 0 0 0 .13-.23c0-.07.06-.24.12-.51a1.69 1.69 0 0 1 .28-.72.82.82 0 0 1 1.06-.19.85.85 0 0 1 .33.38 1.57 1.57 0 0 1 .13.61 1.31 1.31 0 0 1-.23.89.9.9 0 0 1-.67.33v-.62a.52.52 0 0 0 .34-.18.63.63 0 0 0 .09-.4.72.72 0 0 0-.13-.42.23.23 0 0 0-.2-.09.24.24 0 0 0-.19.1 1.64 1.64 0 0 0-.19.58 2.91 2.91 0 0 1-.2.68.85.85 0 0 1-.3.35 1 1 0 0 1-1 0 .9.9 0 0 1-.36-.41 1.76 1.76 0 0 1-.14-.67 1.35 1.35 0 0 1 .24-.91 1.19 1.19 0 0 1 .75-.4z" transform="translate(-23.37 -31.84)"/><path class="cls-13" d="M20.81 45.52l3.01-.75.15.6-1.19.3.3 1.19 1.18-.3.15.61-3 .75-.15-.61 1.31-.33-.3-1.19-1.31.33-.15-.6z"/><path class="cls-13" d="M48 79.7l.26.57-1.5.73a3.58 3.58 0 0 0-.46.24.51.51 0 0 0-.2.3.67.67 0 0 0 .07.42.64.64 0 0 0 .27.32.44.44 0 0 0 .31 0 3.68 3.68 0 0 0 .49-.2l1.55-.73.26.57-1.48.69a4.08 4.08 0 0 1-.74.29.85.85 0 0 1-.43 0 .94.94 0 0 1-.38-.22 1.61 1.61 0 0 1-.34-.5 1.74 1.74 0 0 1-.19-.65 1 1 0 0 1 .09-.44.86.86 0 0 1 .24-.3 3.77 3.77 0 0 1 .69-.39z" transform="translate(-23.37 -31.84)"/><path class="cls-13" d="M23.59 52.59l2.48-1.86 1.38 1.83-.41.32-1.01-1.34-.55.42.94 1.24-.42.32-.94-1.25-.67.51 1.04 1.38-.42.32-1.42-1.89zm4 4.29l.78-1.04.17-2.12.59.44-.15 1.42 1.3-.55.58.44-1.99.75-.79 1.04-.49-.38z"/><path class="cls-13" d="M55.71 91.52l-.61-.3.06-.75-1.16-.54-.54.52-.6-.29 2.44-2.26.6.29zm-.5-1.61l.12-1.22-.88.85z" transform="translate(-23.37 -31.84)"/><path class="cls-13" d="M33.35 60.06l.75-3.01.59.15.73 2.31.5-2.01.56.14-.75 3.01-.61-.15-.72-2.27-.49 1.97-.56-.14z"/><path class="cls-13" d="M61.82 89.69h.63l.06 1.68a3.46 3.46 0 0 0 0 .52.51.51 0 0 0 .2.3.67.67 0 0 0 .42.1.64.64 0 0 0 .4-.12.44.44 0 0 0 .15-.27 3.46 3.46 0 0 0 0-.53l-.06-1.71h.63l.06 1.63a4.17 4.17 0 0 1 0 .79.87.87 0 0 1-.17.4 1 1 0 0 1-.35.27 1.63 1.63 0 0 1-.59.11 1.76 1.76 0 0 1-.68-.08 1 1 0 0 1-.37-.25.87.87 0 0 1-.19-.34 3.82 3.82 0 0 1-.09-.79z" transform="translate(-23.37 -31.84)"/><path class="cls-13" d="M42.41 60.66l-.75-3.01.59-.14 1.73 1.7-.5-2.01.56-.14.75 3.01-.61.15-1.7-1.66.49 1.96-.56.14z"/><path class="cls-11" transform="rotate(-21.99 -24.708 134.179)" d="M68.62 88.4h.63v3.1h-.63z"/><path class="cls-13" d="M48.16 58.57l-2.55-2.09.58-.35 1.86 1.56-.53-2.35.57-.35.64 3.23-.57.35zm2.33-1.49l-2.08-2.3 1.71-1.54.35.39-1.24 1.12.46.51 1.16-1.04.35.38-1.16 1.05.56.62 1.29-1.15.35.38-1.75 1.58z"/><path class="cls-13" d="M76.45 86.49L74 84.63l.79-1.05a2.23 2.23 0 0 1 .5-.52.71.71 0 0 1 .45-.11.9.9 0 0 1 .47.19.83.83 0 0 1 .34.51 1 1 0 0 1-.14.66 1.46 1.46 0 0 1 .41-.11 3.46 3.46 0 0 1 .62 0l.71.06-.45.6h-.81a4.44 4.44 0 0 0-.56 0 .45.45 0 0 0-.22.07 1.05 1.05 0 0 0-.22.23l-.08.1 1 .78zm-1.05-1.57l.28-.37a2.4 2.4 0 0 0 .31-.47.33.33 0 0 0 0-.22.4.4 0 0 0-.15-.19.36.36 0 0 0-.25-.08.37.37 0 0 0-.24.11l-.28.36-.29.39zm2.26-1.82l.21-.57a.74.74 0 0 0 .5 0 .68.68 0 0 0 .33-.34.7.7 0 0 0 .08-.46.38.38 0 0 0-.2-.27.28.28 0 0 0-.2 0 .52.52 0 0 0-.22.14l-.34.39a1.7 1.7 0 0 1-.58.5.81.81 0 0 1-.69 0 .8.8 0 0 1-.34-.31.85.85 0 0 1-.11-.49 1.56 1.56 0 0 1 .17-.6 1.3 1.3 0 0 1 .62-.68.91.91 0 0 1 .75 0l-.25.58A.52.52 0 0 0 77 81a.62.62 0 0 0-.27.31.71.71 0 0 0-.09.43.23.23 0 0 0 .13.17.24.24 0 0 0 .21 0 1.64 1.64 0 0 0 .44-.43 3 3 0 0 1 .5-.51.85.85 0 0 1 .43-.17.93.93 0 0 1 1 1 1.77 1.77 0 0 1-.19.65 1.35 1.35 0 0 1-.64.69 1.19 1.19 0 0 1-.86-.04z" transform="translate(-23.37 -31.84)"/><path class="cls-11" transform="rotate(-72 45.033 79.729)" d="M78.32 78.01h.63v3.1h-.63z"/><path class="cls-13" d="M57.27 46.24l-2.53-.49-.17.9-.52-.1.47-2.42.52.1-.18.9 2.53.49-.12.62zm.4-3.34l-1.31-.02-1.81 1.1.01-.73 1.24-.71-1.21-.74.01-.72 1.78 1.17 1.3.02-.01.63z"/><path class="cls-1" d="M57.29 59.81a7.67 7.67 0 0 0-4 6.81l1.14.29.63-2.14 1.14.67.08.55.76.59L60 63.13l-.42-1.39z" transform="translate(-23.37 -31.84)"/><g class="cls-5"><path class="cls-1" d="M62.5 61.56A6.45 6.45 0 1 0 69 68a6.46 6.46 0 0 0-6.5-6.44zm0 12.28A5.83 5.83 0 1 1 68.33 68a5.84 5.84 0 0 1-5.83 5.84z" transform="translate(-23.37 -31.84)"/><path class="cls-1" d="M62.5 60.17A7.84 7.84 0 1 0 70.34 68a7.84 7.84 0 0 0-7.84-7.83zm0 15.05A7.22 7.22 0 1 1 69.72 68a7.22 7.22 0 0 1-7.22 7.23z" transform="translate(-23.37 -31.84)"/><path class="cls-1" d="M62.5 58.91A9.1 9.1 0 1 0 71.6 68a9.11 9.11 0 0 0-9.1-9.09zm0 17.58A8.48 8.48 0 1 1 71 68a8.49 8.49 0 0 1-8.5 8.49z" transform="translate(-23.37 -31.84)"/></g><path class="cls-11" d="M120.73 55.83a21.37 21.37 0 0 1-3.22-3.71h-1.82v3.79h4.45a1.86 1.86 0 0 1 1.23.45 1.69 1.69 0 0 1 .57 1.21v5a1.58 1.58 0 0 1-.51 1.23 2.18 2.18 0 0 1-1.48.47h-10.67a1.57 1.57 0 0 1-1.21-.61 1.8 1.8 0 0 1-.39-1.13v-4.9a1.62 1.62 0 0 1 .64-1.25 1.88 1.88 0 0 1 1.21-.47h4.37v-3.79H112a19 19 0 0 1-2.87 3.71h-2.73a17.21 17.21 0 0 0 3.52-3.71h-3.18v-1.33h7.19V49c-1.41 0-4.57.08-6.23.08v-1.32a139.7 139.7 0 0 0 14.26-.59v1.39c-1.5.12-4.84.37-6.25.41v1.82h7.21v1.33h-3.22a18.65 18.65 0 0 0 3.73 3.71zm-.55 1.89a.47.47 0 0 0-.49-.43h-9.77a.46.46 0 0 0-.49.47v1.5h10.74zm0 2.91h-10.74v1.78a.56.56 0 0 0 .57.53h9.61a.53.53 0 0 0 .57-.47zm12.35-9.41a20.43 20.43 0 0 1-2.32-4h2a15.76 15.76 0 0 0 2.54 4zm-.31 13h-2a30.79 30.79 0 0 0 2.7-7.13h1.89a39.43 39.43 0 0 1-2.59 7.12zm.08-8.07a23.55 23.55 0 0 1-2.05-4.24h2a15.86 15.86 0 0 0 2.27 4.24zm13.07 2.73v.31a1.7 1.7 0 0 1-.37 1.31 2 2 0 0 1-1.41.41h-5.49v1.68a.32.32 0 0 0 .25.31h9l-.7 1.31H138a1.52 1.52 0 0 1-1.23-.61 2.45 2.45 0 0 1-.49-1.46v-3.26h-1.87a13.8 13.8 0 0 0 3-4.63h-2.64V52.9h2.81v-2.34h-2.34v-1.37h2.34v-2h1.74v2h3.14v-2h1.72v2h2.68v1.37h-2.68v2.34h3.14v1.35h-2.79a13.24 13.24 0 0 0 3 4.63zm-1.76-1.46a.37.37 0 0 0-.33-.31h-4.88a.44.44 0 0 0-.33.37v2.09h5.25a.33.33 0 0 0 .29-.31zm-.86-3.16h-3.48a15.23 15.23 0 0 1-.68 1.5h4.73c-.14-.34-.4-1.02-.57-1.51zm-.29-3.69h-3.14v2.33h3.14zm13.13 11.86h-1.41a67.34 67.34 0 0 0 .53-9.88H156a70.61 70.61 0 0 1-.41 9.88zm2.62-10.84v12.66h-1.68V51.59h-2.11v-1.33h2.11V47.2h1.68v3.07h1.72v1.33zm.7 8.61c-.16-2.42-.27-5.37-.25-7.66h1.27a59.32 59.32 0 0 0 .39 7.66zm1.17 4.1v-1.4c.92-.1 2.5-.31 3.36-.51a23.67 23.67 0 0 0 .92-2.73H166a22.87 22.87 0 0 1-.84 2.38 6.46 6.46 0 0 0 1.25-.25v1.37c-1.6.35-4.77.91-6.33 1.15zM164 50v1.68h1.72V53h-5.16v-1.35h1.78V50h-2.24v-1.36h2.25V47.2H164v1.45h2.07V50zm1.45 8.65a1.49 1.49 0 0 1-1.11.51h-2.4a1.41 1.41 0 0 1-1-.35 1.17 1.17 0 0 1-.43-.9v-2.65a1.35 1.35 0 0 1 .41-1 1.24 1.24 0 0 1 .88-.37h2.62a1.41 1.41 0 0 1 .88.37 1.25 1.25 0 0 1 .45.84v2.56a1.42 1.42 0 0 1-.3.96zM161.37 62c-.16-.55-.39-1.72-.49-2.36h1.5a15.06 15.06 0 0 0 .51 2.36zm2.81-6.45a.38.38 0 0 0-.35-.33h-1.39a.39.39 0 0 0-.33.35v1.86a.4.4 0 0 0 .33.37h1.39a.38.38 0 0 0 .35-.37zm6.23-3.5v10.81a1.34 1.34 0 0 1-.41 1 1.29 1.29 0 0 1-1 .43h-1.6l-.4-1.37h1.23a.59.59 0 0 0 .57-.62V52.08h-2.6v-1.31h2.6V47.2h1.64v3.57h.9v1.31zm-3.57 7.29a46 46 0 0 1-.64-5.88h1.54a26 26 0 0 0 .64 5.88zM181 52.82h.92v11.43h-1.8V53.68h-2a21.42 21.42 0 0 0 3.5-6.45h2a28.67 28.67 0 0 1-2.62 5.59zm1.76 10.94v-1.39h12.6v1.39zm.8-13.83v-1.38h10.84v1.39zm32.94 14.32a21.83 21.83 0 0 1-5.68-8.25 20 20 0 0 1-5.82 8.25h-2.73c4.28-3.22 7.13-7.21 7.5-11.64h-7.27v-1.39h7.29a34.51 34.51 0 0 0 .08-4h1.82c0 1 0 3-.1 4h7.5v1.39h-7.62c-.06.57-.23 1.58-.35 2.19h1.05c1.13 3.67 4.24 7.29 7.17 9.45zm19.25-3.62v2a1.7 1.7 0 0 1-.43 1.29 1.76 1.76 0 0 1-1.21.39h-2.54l-.49-1.31h2.52a.31.31 0 0 0 .33-.35v-2h-7.7v-1.27h7.7V59a21.83 21.83 0 0 0 2.34-.84h-6.86v-1.31h9.49a.67.67 0 0 1 .68.43.62.62 0 0 1-.27.76 20 20 0 0 1-3 1.35h7v1.25zm5.53-3v-1.47a.35.35 0 0 0-.37-.39h-12.33a.42.42 0 0 0-.37.39v1.48h-1.74v-1.56a2 2 0 0 1 .2-.92 1.59 1.59 0 0 1 .68-.61v-5.4a1.2 1.2 0 0 1 .31-.74 1.56 1.56 0 0 1 .76-.47 36.67 36.67 0 0 0 3.65-.78v1.37l-2.7.57a.48.48 0 0 0-.37.41v.37h2.66V51H229v1.2h2.66v1.15H229v1.15h11.43v-1.15h-2.58V52.2h2.58V51h-2.58v-1.13h2.62v-.78a.41.41 0 0 0-.45-.43h-2.36v-1.21h2.83a1.58 1.58 0 0 1 1.23.47 1.68 1.68 0 0 1 .39 1.19v5.49a1.29 1.29 0 0 1 .61.51 1.46 1.46 0 0 1 .23.78v1.76zM235.77 54c-.25-.16-.72-.49-1-.66a6.91 6.91 0 0 1-1 .66h-2.11a22.57 22.57 0 0 0 2.19-1.48c-.43-.41-1.15-1.15-1.56-1.62h1.8a9.77 9.77 0 0 0 .76.8c.21-.18.63-.57.86-.8h1.76a22.37 22.37 0 0 1-1.68 1.66 16.9 16.9 0 0 0 2 1.45zm-.25-3.52a8.78 8.78 0 0 1-.72-.55c-.21.16-.61.43-.82.55h-2.08c.51-.33 1.48-1 1.93-1.39a11.62 11.62 0 0 1-1.56-1.74H234c.21.27.61.7.78.9.23-.21.64-.61.92-.9h1.72a16.42 16.42 0 0 1-1.66 1.76c.45.37 1.37 1.05 1.84 1.37zM106.28 84.92v-9.57h1.36v4h4.55v-4h1.36v9.56h-1.36V80.4h-4.55v4.52zm13.64.23a4.14 4.14 0 0 1-3.25-1.37 6.09 6.09 0 0 1 0-7.31 4.56 4.56 0 0 1 6.51 0 6.09 6.09 0 0 1 0 7.31 4.14 4.14 0 0 1-3.26 1.37zm0-1a2.64 2.64 0 0 0 2.23-1.06 4.82 4.82 0 0 0 .8-3 4.76 4.76 0 0 0-.8-2.94 2.88 2.88 0 0 0-4.46 0 4.77 4.77 0 0 0-.8 2.94 4.82 4.82 0 0 0 .8 3 2.64 2.64 0 0 0 2.23 1.05zm6.37.77v-9.57h1.33l4.81 7.38v-7.38h1.16v9.56h-1.32l-4.82-7.38v7.38zm16.96-.26a11.26 11.26 0 0 1-3 .5 4.57 4.57 0 0 1-3.5-1.29 6.24 6.24 0 0 1 0-7.43 4.54 4.54 0 0 1 3.48-1.32 11.41 11.41 0 0 1 3 .43v1.25a10.35 10.35 0 0 0-3-.67 2.93 2.93 0 0 0-2.41 1 4.57 4.57 0 0 0-.86 3 4.34 4.34 0 0 0 .92 2.95 3.22 3.22 0 0 0 2.57 1.05 5 5 0 0 0 1.47-.24v-3.1h1.36zm6.57.26v-9.57h1.27v4.7l3.87-4.7h1.36l-3.75 4.56 4.41 5h-1.72l-4.18-4.85v4.85zm12.55.23a4.14 4.14 0 0 1-3.25-1.37 6.09 6.09 0 0 1 0-7.31 4.56 4.56 0 0 1 6.51 0 6.09 6.09 0 0 1 0 7.31 4.14 4.14 0 0 1-3.26 1.37zm0-1a2.64 2.64 0 0 0 2.23-1.06 4.82 4.82 0 0 0 .8-3 4.76 4.76 0 0 0-.8-2.94 2.88 2.88 0 0 0-4.46 0 4.77 4.77 0 0 0-.8 2.94 4.82 4.82 0 0 0 .8 3 2.64 2.64 0 0 0 2.23 1.05zm6.37.77v-9.57h1.33l4.81 7.38v-7.38H176v9.56h-1.32l-4.82-7.38v7.38zm16.96-.26a11.26 11.26 0 0 1-3 .5 4.57 4.57 0 0 1-3.5-1.29 6.24 6.24 0 0 1 0-7.43 4.54 4.54 0 0 1 3.48-1.32 11.41 11.41 0 0 1 3 .43v1.25a10.35 10.35 0 0 0-3-.67 2.93 2.93 0 0 0-2.41 1 4.57 4.57 0 0 0-.86 3 4.34 4.34 0 0 0 .92 2.95 3.22 3.22 0 0 0 2.57 1.05 5 5 0 0 0 1.47-.24v-3.1h1.36zm5.98.07v-1.34a6.69 6.69 0 0 0 2.66.75 1.89 1.89 0 0 0 1.28-.42 1.39 1.39 0 0 0 .49-1.1 1.47 1.47 0 0 0-.32-1 4.26 4.26 0 0 0-1.18-.88l-.61-.34a6.23 6.23 0 0 1-1.72-1.31 2.21 2.21 0 0 1-.5-1.43 2.33 2.33 0 0 1 .8-1.83 3 3 0 0 1 2-.71 8.11 8.11 0 0 1 2.33.37v1.24a7 7 0 0 0-2.26-.59 1.78 1.78 0 0 0-1.16.38 1.17 1.17 0 0 0-.46.94 1.21 1.21 0 0 0 .34.85 5.29 5.29 0 0 0 1.23.88l.69.39a6 6 0 0 1 1.71 1.31 2.37 2.37 0 0 1 .49 1.5 2.47 2.47 0 0 1-.92 2 3.71 3.71 0 0 1-2.44.76 9.54 9.54 0 0 1-2.45-.42zm7.71.19v-9.57h1.36v4h4.55v-4h1.36v9.56h-1.36V80.4h-4.55v4.52zm9.61-9.57h1.36v6a3.32 3.32 0 0 0 .53 2.1 2.05 2.05 0 0 0 1.69.66 1.91 1.91 0 0 0 1.61-.62 3.52 3.52 0 0 0 .47-2.09v-6.05h1.2v6.06a5.86 5.86 0 0 1-.25 1.93 2.68 2.68 0 0 1-.89 1.18 4.26 4.26 0 0 1-4.87-.29 4.08 4.08 0 0 1-.86-2.86zm9.29 9.57v-9.57h5.34v1h-4v3.07H223v1h-3.34v3.48h4.27v1zm13.43 0v-4l-3.19-5.57h1.55l2.49 4.32 2.67-4.32h1.26l-3.42 5.54v4zm5.05 0l3.79-9.56h1.34l3.73 9.56h-1.46l-1-2.64h-4.06L238 84.92zm2.7-3.66h3.27l-1.63-4.13zm7.53 3.66v-9.57h1.33l4.81 7.38v-7.38h1.16v9.56H253l-4.82-7.38v7.38zm13.91-9.57h1.36v6a3.32 3.32 0 0 0 .53 2.1 2.05 2.05 0 0 0 1.69.66 1.91 1.91 0 0 0 1.61-.62 3.52 3.52 0 0 0 .47-2.09v-6.05h1.2v6.06a5.86 5.86 0 0 1-.25 1.93 2.68 2.68 0 0 1-.89 1.18 4.26 4.26 0 0 1-4.87-.29 4.08 4.08 0 0 1-.86-2.86zm9.25 9.57v-9.57h1.33l4.81 7.38v-7.38h1.16v9.56h-1.32l-4.82-7.38v7.38zm9.77 0v-9.57h1.36v9.56zm6.43 0l-3.61-9.56h1.35l3 7.83 2.86-7.83h1.19l-3.47 9.56zm6.05 0v-9.57h5.34v1h-4v3.07h3.34v1h-3.34v3.48H298v1zm7.17 0v-9.57h2.9a3.23 3.23 0 0 1 2.11.61 2.16 2.16 0 0 1 .73 1.76 2.73 2.73 0 0 1-.51 1.62 3.22 3.22 0 0 1-1.43 1.09l3.19 4.48h-1.67l-2.73-4h-1.26v4zm1.34-5.06h.44a3.06 3.06 0 0 0 1.91-.51 1.78 1.78 0 0 0 .65-1.49q0-1.49-2.15-1.49h-.85zm6.44 4.87v-1.34a6.69 6.69 0 0 0 2.66.75 1.89 1.89 0 0 0 1.28-.42 1.39 1.39 0 0 0 .49-1.1 1.47 1.47 0 0 0-.32-1 4.26 4.26 0 0 0-1.18-.88l-.66-.38a6.23 6.23 0 0 1-1.72-1.31 2.21 2.21 0 0 1-.5-1.43 2.33 2.33 0 0 1 .8-1.83 3 3 0 0 1 2-.71 8.11 8.11 0 0 1 2.33.37v1.24a7 7 0 0 0-2.26-.59 1.78 1.78 0 0 0-1.16.38 1.17 1.17 0 0 0-.46.94 1.22 1.22 0 0 0 .34.85 5.28 5.28 0 0 0 1.23.88l.69.39a6 6 0 0 1 1.73 1.33 2.37 2.37 0 0 1 .49 1.5 2.47 2.47 0 0 1-.92 2 3.71 3.71 0 0 1-2.44.76 9.54 9.54 0 0 1-2.42-.4zm7.71.19v-9.57h1.36v9.56zm6.09 0v-8.56h-3.39v-1h8.14v1h-3.39v8.55zm8.17 0v-4l-3.19-5.57h1.55l2.49 4.32 2.67-4.32h1.26l-3.42 5.54v4z" transform="translate(-23.37 -31.84)"/><path class="cls-6" d="M82.76 37.79h227.72m-227.72-.32h227.72v.63H82.76z"/></svg>