<?xml version="1.0" encoding="UTF-8" standalone="no"?>
<!-- Generator: Adobe Illustrator 18.0.0, SVG Export Plug-In . SVG Version: 6.00 Build 0)  -->

<svg
   xmlns:dc="http://purl.org/dc/elements/1.1/"
   xmlns:cc="http://creativecommons.org/ns#"
   xmlns:rdf="http://www.w3.org/1999/02/22-rdf-syntax-ns#"
   xmlns:svg="http://www.w3.org/2000/svg"
   xmlns="http://www.w3.org/2000/svg"
   xmlns:sodipodi="http://sodipodi.sourceforge.net/DTD/sodipodi-0.dtd"
   xmlns:inkscape="http://www.inkscape.org/namespaces/inkscape"
   version="1.1"
   id="Layer_1"
   x="0px"
   y="0px"
   viewBox="0 0 43.231878 13.422082"
   enable-background="new 0 0 34.503 37.455"
   xml:space="preserve"
   sodipodi:docname="Tung_Wah_Group_of_Hospitals_logo.svg"
   width="43.231876"
   height="13.422083"
   inkscape:version="0.92.3 (2405546, 2018-03-11)"><metadata
   id="metadata922"><rdf:RDF><cc:Work
       rdf:about=""><dc:format>image/svg+xml</dc:format><dc:type
         rdf:resource="http://purl.org/dc/dcmitype/StillImage" /><dc:title></dc:title></cc:Work></rdf:RDF></metadata><defs
   id="defs920" /><sodipodi:namedview
   pagecolor="#ffffff"
   bordercolor="#666666"
   borderopacity="1"
   objecttolerance="10"
   gridtolerance="10"
   guidetolerance="10"
   inkscape:pageopacity="0"
   inkscape:pageshadow="2"
   inkscape:window-width="1920"
   inkscape:window-height="1018"
   id="namedview918"
   showgrid="false"
   fit-margin-top="0"
   fit-margin-left="0"
   fit-margin-right="0"
   fit-margin-bottom="0"
   inkscape:zoom="11.266853"
   inkscape:cx="31.511643"
   inkscape:cy="2.3857915"
   inkscape:window-x="-8"
   inkscape:window-y="-8"
   inkscape:window-maximized="1"
   inkscape:current-layer="text990" />



















































<g
   id="g986"
   transform="scale(1.0838814)"><path
     style="fill:#ffffff;stroke-width:0.33061907"
     inkscape:connector-curvature="0"
     id="path815"
     d="M 8.9716791,6.0175977 V 0.10877367 H 5.7038402 5.5041463 2.4360013 V 6.0175977 c 0,0.5015492 -0.1134023,1.3601669 0.7772855,2.0881901 0.8549809,0.69959 1.5380399,0.3726077 1.942387,0.5828814 0.4212087,0.2188698 0.5316355,0.4063309 0.5465133,0.7263701 l 0.00165,0.083316 c 0,-0.3726077 0.091582,-0.5723016 0.5478358,-0.8096861 C 6.6563538,8.4783955 7.3390822,8.8053778 8.1943937,8.1057878 9.0847509,7.377434 8.9716791,6.5191469 8.9716791,6.0175977" /><rect
     style="fill:#e60021;stroke-width:0.33061907"
     id="rect817"
     height="1.4084374"
     width="6.4272351"
     y="3.2979255"
     x="2.4902229" /><path
     style="stroke-width:0.33061907"
     inkscape:connector-curvature="0"
     id="path819"
     d="M 2.4902229,3.1898128 H 8.9174576 V 3.4063683 H 2.4902229 Z m 0,1.4084373 H 8.9174576 V 4.8148056 H 2.4902229 Z" /><polyline
     style="fill:#e60021"
     transform="scale(0.33061907)"
     id="polyline821"
     points="15.122,0.378 15.122,26.182 17.172,27.512 19.382,26.182 19.382,0.378 " /><polygon
     transform="scale(0.33061907)"
     id="polygon823"
     points="19.71,26.181 19.055,26.181 19.055,0.704 15.448,0.704 15.449,26.181 14.795,26.181 14.795,0.051 19.709,0.051 19.709,26.181 " /><path
     style="fill:#11386c;stroke-width:0.33061907"
     inkscape:connector-curvature="0"
     id="path825"
     d="M 5.7038402,7.1750951 C 5.7362409,7.0778931 6.0166059,6.7971975 6.2622559,6.7512415 6.5188163,6.7033017 6.8210021,6.7323962 7.1016977,6.4087201 7.326188,6.1491841 7.3308167,5.8393941 7.3308167,5.4833173 V 1.792286 H 4.0659534 v 3.6913619 c 0,0.3560768 0.00463,0.6658668 0.229119,0.9254028 0.2806956,0.3236761 0.5828814,0.2945816 0.8394418,0.3425214 0.24565,0.045956 0.5256843,0.3266516 0.5587462,0.4238536 h 0.01058 z" /><path
     style="stroke-width:0.33061907"
     inkscape:connector-curvature="0"
     id="path827"
     d="M 5.7907931,7.1430251 C 5.7623598,7.0573947 5.6525943,6.9436618 5.5596903,6.8656357 5.4803417,6.7988506 5.3219752,6.6824727 5.1536901,6.6507333 5.1017829,6.6411453 5.0492145,6.6345329 4.9979685,6.6279205 4.7804212,6.6004792 4.5751067,6.5750215 4.3727679,6.3416044 4.1687759,6.1062036 4.1687759,5.8172426 4.1687759,5.4836479 V 1.792286 L 4.066284,1.8951085 H 7.3308167 L 7.2286554,1.792286 v 3.6913619 c 0,0.3335947 0,0.6225557 -0.203992,0.8579565 -0.2023388,0.2334171 -0.4076533,0.2588748 -0.6255313,0.2863161 -0.051246,0.00661 -0.104145,0.013225 -0.1553909,0.022813 -0.1682851,0.031739 -0.3269823,0.1481173 -0.4063309,0.2149024 -0.092904,0.078026 -0.2020082,0.191759 -0.2304415,0.2773894 l 0.097202,-0.070422 h -0.01058 z m 0.01058,0.064471 -3.307e-4,3.306e-4 c 0.021821,-0.059511 0.2651565,-0.31508 0.4803896,-0.3557461 0.045295,-0.00793 0.092904,-0.014217 0.1438193,-0.020498 0.222837,-0.028434 0.500557,-0.06348 0.7541419,-0.3554162 0.254246,-0.2939204 0.254246,-0.6493359 0.254246,-0.9925185 V 1.792286 1.6897941 H 7.3308167 4.066284 3.9637921 V 1.792286 5.4836479 c 0,0.3431826 0,0.6985981 0.254246,0.9925185 0.2532542,0.2919366 0.5313049,0.3269823 0.7544727,0.3554155 0.050254,0.00628 0.097863,0.012564 0.1431581,0.020498 0.2158943,0.040666 0.4585687,0.2962347 0.4803895,0.3557461 v -3.306e-4 l 0.1081125,0.1266271 z" /><path
     style="fill:#e60021;stroke-width:0.33061907"
     inkscape:connector-curvature="0"
     id="path829"
     d="m 5.7038402,10.930928 c -1.1548524,0 -2.0670304,-0.119023 -3.4807576,-0.858287 C 0.67876096,9.2652689 0.15671344,8.5243515 0.15671344,8.5243515 0.81464539,8.1355435 0.94457869,7.4554601 0.90622688,7.0454924 0.86291578,6.5813033 1.3052841,5.9561026 2.0614099,6.3657396 2.5791594,6.6461046 2.6092457,7.2587417 2.2773042,7.509351 L 1.7450075,8.168936 c 0.4030246,0.3286354 0.9336682,0.6810753 1.546636,0.8949859 1.3922369,0.4856794 2.4121967,0.4856794 2.4121967,0.4856794 h 0.199694 v 1.3919067 z" /><path
     style="fill:#e60021;stroke-width:0.33061907"
     inkscape:connector-curvature="0"
     id="path831"
     d="m 5.7038402,10.930928 c 1.1548525,0 2.0670305,-0.119023 3.4807576,-0.858287 C 10.72892,9.2652689 11.251298,8.5243515 11.251298,8.5243515 10.593035,8.1355435 10.463102,7.4554601 10.501123,7.0454924 10.544765,6.5813033 10.102396,5.9561026 9.3466012,6.3657396 8.8285211,6.6461046 8.7984348,7.2587417 9.1303763,7.509351 L 9.662673,8.168936 C 9.259979,8.4975714 8.7290048,8.8500113 8.116037,9.0639219 6.7238001,9.5496013 5.7038402,9.5496013 5.7038402,9.5496013 H 5.5041463 v 1.3919067 z" /><path
     style="stroke-width:0.33061907"
     inkscape:connector-curvature="0"
     id="path833"
     d="M 2.1731592,10.16852 C 0.61329838,9.3532136 0.07703424,8.5997327 0.06810753,8.5865079 L 0,8.490959 0.10150006,8.4307863 C 0.65098895,8.1067797 0.80307373,7.5655562 0.80406558,7.1790625 c 0,-0.043642 -0.001653,-0.084969 -0.00529,-0.1229903 -0.002314,-0.024796 -0.003637,-0.049262 -0.003637,-0.073728 6.6124e-4,-0.1990327 0.0707525,-0.4076533 0.20630632,-0.5732935 0.1335701,-0.1649789 0.340207,-0.2853242 0.5941224,-0.284663 0.1586972,0 0.3322722,0.045956 0.5174189,0.1464642 0.3302884,0.1775425 0.4906387,0.4860101 0.4899775,0.7736487 3.306e-4,0.076042 -0.011241,0.1514235 -0.033062,0.222176 l 0.04794,0.040335 L 1.840887,8.2357211 1.6749162,8.0965305 1.9850369,7.7262371 C 1.8227029,7.7216084 1.6983902,7.6376312 1.6081312,7.5460497 V 7.9196493 H 1.3919063 V 7.196916 l 0.2076288,-0.04298 c 0,0 0.00132,0.00397 0.00661,0.014217 0.0043,0.00959 0.011902,0.023805 0.021821,0.042319 0.019837,0.035376 0.048932,0.082985 0.086292,0.129272 0.075381,0.095218 0.1755587,0.1719219 0.2806956,0.1705994 C 2.0528138,7.5100122 2.1222438,7.4905057 2.2118416,7.42339 2.3232602,7.3390822 2.3864085,7.2008834 2.3864085,7.0445006 2.3860778,6.8352187 2.2733367,6.604116 2.0098333,6.4609579 1.8504749,6.3746663 1.7122762,6.3409432 1.5955676,6.3409432 1.4100903,6.3416044 1.2702385,6.4232673 1.1684078,6.5462576 1.0669077,6.6692479 1.0110331,6.8352187 1.0113637,6.9823442 c 0,0.017853 9.919e-4,0.035707 0.00265,0.05323 0.0043,0.045295 0.00628,0.092904 0.00628,0.1434886 9.918e-4,0.412282 -0.1570441,0.9928491 -0.70388805,1.3710773 0.007935,0.00959 0.0168616,0.019837 0.0267802,0.030748 0.0700912,0.078687 0.18051801,0.1937428 0.33921517,0.3339253 0.31706369,0.2803649 0.82654768,0.66223 1.59093898,1.062279 1.4028168,0.7316606 2.2829247,0.8440706 3.4301729,0.8457236 v 0.215895 h -0.018184 c -1.1528687,0 -2.0944719,-0.126958 -3.5121664,-0.87019" /><path
     style="stroke-width:0.33061907"
     inkscape:connector-curvature="0"
     id="path835"
     d="M 3.2559366,9.1657525 C 1.827001,8.6655259 0.85068287,7.4485171 0.84373987,7.4428966 h 3.3062e-4 L 1.0123556,7.3066815 c 0,0 0.057528,0.071414 0.1682851,0.1894447 0.1107574,0.1183617 0.2730914,0.2810262 0.4780752,0.4592299 0.4099676,0.3557461 0.9908653,0.7703425 1.6689651,1.0060739 1.0325233,0.3600441 1.8574179,0.4499725 2.201923,0.472124 0.1147248,0.0076 0.1739056,0.00727 0.1739056,0.00727 v 3.306e-4 0.2158943 c -0.00793,0 -1.0394663,-6.613e-4 -2.447573,-0.4913" /><path
     style="stroke-width:0.33061907"
     inkscape:connector-curvature="0"
     id="path837"
     d="M 5.7035096,11.03871 V 10.822815 C 6.8517497,10.821162 7.7318576,10.708421 9.1340131,9.9767611 10.333499,9.3499074 10.904809,8.7666953 11.091278,8.5501398 10.544103,8.1719116 10.386068,7.5913445 10.386729,7.1790625 c 0,-0.050585 0.0023,-0.098194 0.0066,-0.1428274 0.0017,-0.017523 0.0023,-0.035707 0.0023,-0.054221 6.62e-4,-0.1471255 -0.05554,-0.3127657 -0.156382,-0.435756 C 10.136781,6.4229367 9.9972595,6.3416044 9.8121128,6.3409432 c -0.1163779,0 -0.2545767,0.033392 -0.413935,0.1196841 C 9.1340131,6.604116 9.0216026,6.8352187 9.0206108,7.04417 c 3.306e-4,0.1560522 0.063809,0.2949122 0.1752281,0.3788894 0.088936,0.067446 0.1590278,0.086292 0.2168861,0.087283 0.092243,6.613e-4 0.1791955,-0.056536 0.2519317,-0.136215 0.071083,-0.078026 0.1203454,-0.1712607 0.1368763,-0.2063063 0.00463,-0.00992 0.00661,-0.013886 0.00661,-0.013886 l 0.20796,0.04298 V 7.9196493 H 9.7995493 V 7.5460497 C 9.7089597,7.6376312 9.5849775,7.7216084 9.4229742,7.7259065 L 9.7330949,8.0961998 9.5667935,8.2357211 8.7898387,7.3070121 8.8377784,7.2670072 C 8.8156269,7.1955935 8.8043859,7.1202123 8.8047165,7.04417 8.8040553,6.756862 8.9644055,6.4483944 9.2950246,6.2705213 9.47951,6.1700131 9.6530851,6.1243877 9.8121128,6.1243877 c 0.2535852,-6.612e-4 0.4602222,0.1196841 0.5944532,0.284663 0.134562,0.1653096 0.204653,0.3742608 0.205314,0.5729629 0,0.024466 -9.91e-4,0.048601 -0.0026,0.073397 -0.004,0.038682 -0.006,0.08001 -0.006,0.1236515 9.92e-4,0.3864937 0.152746,0.9270559 0.702896,1.2517238 l 0.10117,0.060173 -0.06778,0.095549 c -0.0089,0.012894 -0.545522,0.766375 -2.1047211,1.5820121 -1.4180252,0.743232 -2.3589671,0.87019 -3.512497,0.87019 h -0.018845 z" /><path
     style="stroke-width:0.33061907"
     inkscape:connector-curvature="0"
     id="path839"
     d="m 5.6883011,9.4408276 c 0,0 0.060503,3.306e-4 0.1765506,-0.00727 C 5.9815603,9.4262804 6.1514985,9.4117331 6.365409,9.3816468 6.7922382,9.3214741 7.3923118,9.20179 8.0803301,8.96143 9.0969838,8.6079982 9.8957595,7.8512111 10.22737,7.4961262 10.337797,7.3780952 10.395325,7.3070121 10.395325,7.3070121 h 3.3e-4 l 0.168286,0.1355538 C 10.557328,7.4491783 9.5803489,8.6651953 8.1517438,9.1657525 6.7436372,9.6563912 5.6972279,9.6573831 5.6883011,9.6573831 Z" /><polygon
     style="fill:#ffffff"
     transform="scale(0.33061907)"
     id="polygon841"
     points="4.016,25.219 4.603,25.736 4.404,25.964 4.188,25.774 3.181,26.917 3.024,26.781 4.031,25.637 3.816,25.446 " /><path
     style="fill:#ffffff;stroke-width:0.33061907"
     inkscape:connector-curvature="0"
     id="path843"
     d="M 1.8316297,8.7428908 1.6064781,9.0467297 C 1.5109292,9.1756711 1.4150496,9.20179 1.3528932,9.155834 1.2904062,9.1095473 1.2874307,9.0103616 1.3833102,8.8814201 L 1.6084618,8.5779118 1.6636752,8.618578 1.4686099,8.8820814 C 1.407776,8.9640749 1.3545463,9.0401173 1.4084372,9.0804528 1.4626588,9.1204577 1.5205171,9.0473909 1.5810204,8.9653974 L 1.7764163,8.701894 Z" /><polygon
     style="fill:#ffffff"
     transform="scale(0.33061907)"
     id="polygon845"
     points="5.682,28.25 6.452,27.043 6.616,27.146 5.634,28.687 5.386,28.529 5.879,27.045 5.875,27.047 5.061,28.323 4.897,28.217 5.879,26.678 6.139,26.843 5.678,28.252 " /><path
     style="fill:#ffffff;stroke-width:0.33061907"
     inkscape:connector-curvature="0"
     id="path847"
     d="M 2.2492015,9.4497543 2.2974715,9.3618093 2.412527,9.4252883 2.2670546,9.689453 C 2.2396136,9.690773 2.2151476,9.686473 2.1910126,9.678542 2.1764656,9.673582 2.1605956,9.668293 2.1238966,9.648786 2.0683526,9.618038 2.0280166,9.5105872 2.1437336,9.3006441 2.2591196,9.0900398 2.3715301,9.0665658 2.4264129,9.0973134 c 0.081332,0.044634 0.1061287,0.1177004 0.03736,0.2443275 l -0.06381,-0.035376 c 0.0367,-0.067115 0.025789,-0.1028218 -0.00694,-0.1210058 -0.05356,-0.029094 -0.1196841,0.030748 -0.1851466,0.1504316 -0.065793,0.1190229 -0.080671,0.2076288 -0.027772,0.2367233 0.024135,0.013225 0.043642,0.0162 0.062818,0.019176 l 0.060834,-0.1117492 z" /><polygon
     style="fill:#ffffff"
     transform="scale(0.33061907)"
     id="polygon849"
     points="8.994,28.842 8.992,28.842 8.276,30.049 8.058,29.957 8.554,28.183 8.753,28.267 8.353,29.59 8.355,29.59 9.065,28.4 9.282,28.491 8.899,29.822 8.901,29.822 9.581,28.619 9.764,28.696 8.824,30.281 8.611,30.191 " /><path
     style="fill:#ffffff;stroke-width:0.33061907"
     inkscape:connector-curvature="0"
     id="path851"
     d="M 3.3561142,9.9298132 3.3994253,9.672261 3.3987641,9.6715997 3.2698226,9.8993963 Z M 3.093272,10.079914 3.4010784,9.5476176 l 0.077365,0.02678 -0.093565,0.6070164 -0.065132,-0.02248 0.019837,-0.128941 -0.1193535,-0.041658 -0.065132,0.113402 z" /><polygon
     style="fill:#ffffff"
     transform="scale(0.33061907)"
     id="polygon853"
     points="11.218,31.084 11.436,30.313 11.082,30.211 10.863,30.983 10.664,30.927 11.159,29.17 11.361,29.226 11.164,29.919 11.517,30.019 11.713,29.325 11.916,29.384 11.418,31.141 " /><path
     style="fill:#ffffff;stroke-width:0.33061907"
     inkscape:connector-curvature="0"
     id="path855"
     d="m 4.348302,10.195631 0.018515,-0.09853 0.1289414,0.0238 -0.054883,0.297227 c -0.025788,0.0093 -0.050585,0.01322 -0.075712,0.01322 -0.015539,-9.92e-4 -0.03207,0 -0.073067,-0.0083 -0.062487,-0.01091 -0.134562,-0.100178 -0.09092,-0.33624 0.043642,-0.2363924 0.1428274,-0.2932588 0.2049838,-0.2820178 0.091251,0.017192 0.1375375,0.079349 0.1117492,0.2208538 l -0.071414,-0.01356 C 4.4603814,9.936373 4.4388954,9.9059556 4.4018614,9.8993433 4.3423504,9.8884333 4.298047,9.9657973 4.27292,10.100029 c -0.024796,0.134562 -0.01091,0.222507 0.04827,0.233748 0.027111,0.005 0.046287,0.0017 0.065132,-0.002 l 0.023474,-0.125305 z" /><path
     style="fill:#ffffff;stroke-width:0.33061907"
     inkscape:connector-curvature="0"
     id="path857"
     d="m 4.7156198,10.129838 0.057528,0.0073 c 0.030086,0.003 0.051246,-0.02347 0.057197,-0.07604 0.00661,-0.05323 -0.00793,-0.077695 -0.038021,-0.082655 l -0.056866,-0.00694 z m -0.041989,0.341529 -0.068107,-0.0086 0.074059,-0.5990816 0.1352232,0.016862 c 0.054552,0.00727 0.1064593,0.047609 0.09092,0.1696076 -0.00959,0.07736 -0.04265,0.125965 -0.083977,0.136876 v 0.002 c 0.051246,0.01686 0.043311,0.0777 0.038682,0.161672 -0.00132,0.03802 -0.0076,0.108774 0.00132,0.14415 L 4.7867,10.485253 c 6.613e-4,-0.05422 0.0043,-0.108112 0.0076,-0.162334 0.00264,-0.03372 0.00364,-0.07968 -0.018845,-0.08398 l -0.071414,-0.0093 z" /><path
     style="fill:#ffffff;stroke-width:0.33061907"
     inkscape:connector-curvature="0"
     id="path859"
     d="m 5.0935174,10.211501 c -0.00661,0.103153 -9.918e-4,0.221184 0.066455,0.225482 0.068107,0.0043 0.088275,-0.111749 0.094888,-0.214903 0.00661,-0.104145 9.919e-4,-0.221514 -0.066124,-0.226143 -0.068107,-0.0043 -0.088606,0.11208 -0.095218,0.215564 m -0.072736,-0.005 c 0.011241,-0.177873 0.067777,-0.3107815 0.173575,-0.3038385 0.1057982,0.00694 0.1448112,0.1458025 0.1332395,0.3236765 -0.01091,0.177542 -0.067777,0.310781 -0.1732444,0.304169 -0.1057981,-0.0069 -0.1448111,-0.146134 -0.1335701,-0.324007" /><path
     style="fill:#ffffff;stroke-width:0.33061907"
     inkscape:connector-curvature="0"
     id="path861"
     d="M 5.75178,9.9294826 5.7511188,10.30705 c -3.307e-4,0.16068 -0.061826,0.238376 -0.1398519,0.238045 -0.077034,0 -0.1381988,-0.0777 -0.1381988,-0.238376 L 5.47406,9.9288214 h 0.068769 l -6.612e-4,0.3279736 c -3.306e-4,0.101831 0.00231,0.194735 0.070091,0.194735 0.067116,3.31e-4 0.070091,-0.0929 0.070091,-0.194404 L 5.683011,9.929152 Z" /><path
     style="fill:#ffffff;stroke-width:0.33061907"
     inkscape:connector-curvature="0"
     id="path863"
     d="m 5.9719723,10.19497 c 0.038021,-0.005 0.088606,0.01818 0.084638,-0.08861 -0.00463,-0.1071208 -0.05323,-0.08001 -0.091251,-0.08199 z m -0.055213,0.335578 -0.024466,-0.6037104 0.099186,-0.00397 c 0.070752,-0.00198 0.131917,0.027772 0.1375376,0.1805174 0.00463,0.109766 -0.03174,0.182833 -0.1028226,0.189776 l -0.049923,0.0023 0.00926,0.232095 z" /><path
     style="fill:#ffffff;stroke-width:0.33061907"
     inkscape:connector-curvature="0"
     id="path865"
     d="m 6.5419596,10.184721 c 0.012894,0.102822 0.039674,0.217216 0.1071206,0.208951 0.067446,-0.0083 0.065793,-0.126297 0.052899,-0.228789 C 6.6894157,10.06173 6.6623049,9.9470054 6.5948586,9.9552709 6.527743,9.9635364 6.5290654,10.081567 6.5419596,10.184721 m -0.072736,0.0086 c -0.02149,-0.176882 0.00959,-0.3180559 0.1140636,-0.3309501 0.1051368,-0.012563 0.1696076,0.1167086 0.1914284,0.2932591 0.022152,0.176551 -0.0086,0.317725 -0.1140636,0.33095 -0.1051368,0.01323 -0.1696076,-0.116048 -0.1914284,-0.293259" /><polygon
     style="fill:#ffffff"
     transform="scale(0.33061907)"
     id="polygon867"
     points="21.422,29.938 21.369,29.638 20.754,29.749 21.074,31.547 21.279,31.511 21.142,30.744 21.524,30.676 21.472,30.377 21.089,30.445 21.011,30.011 " /><polygon
     style="fill:#ffffff"
     transform="scale(0.33061907)"
     id="polygon869"
     points="23.341,31.05 23.135,30.275 22.779,30.368 22.984,31.145 22.783,31.198 22.316,29.432 22.517,29.378 22.701,30.075 23.055,29.981 22.869,29.285 23.073,29.232 23.541,30.997 " /><path
     style="fill:#ffffff;stroke-width:0.33061907"
     inkscape:connector-curvature="0"
     id="path871"
     d="M 7.9117144,9.8934451 C 7.9444454,9.9923001 7.9933774,10.09909 8.057848,10.077931 8.121988,10.056441 8.097522,9.9417155 8.065118,9.8428604 8.032056,9.7443364 7.983455,9.637546 7.9186537,9.6587056 c -0.06414,0.02116 -0.039344,0.1365457 -0.00694,0.2347395 m -0.069761,0.023143 c -0.055544,-0.169277 -0.052899,-0.3134269 0.047609,-0.3468194 0.1008388,-0.033062 0.1887835,0.081002 0.2449888,0.2506092 0.055544,0.1689464 0.052899,0.3134271 -0.047609,0.3464891 -0.1005082,0.03339 -0.1887835,-0.081 -0.2449887,-0.2502789" /><path
     style="fill:#ffffff;stroke-width:0.33061907"
     inkscape:connector-curvature="0"
     id="path873"
     d="m 8.3782179,9.5872919 c -0.025127,-0.055544 -0.052238,-0.077034 -0.082985,-0.065132 -0.023474,0.00959 -0.038021,0.042319 -0.018515,0.091251 0.023805,0.060503 0.055544,0.056205 0.085961,0.057528 0.053891,0.00397 0.1299333,0.00165 0.1745669,0.1147248 0.055213,0.13886 0.010249,0.2122575 -0.05356,0.2377143 -0.068107,0.02678 -0.1365457,-0.0036 -0.1897753,-0.1458022 l 0.064801,-0.02645 c 0.022151,0.063809 0.057858,0.098194 0.091251,0.084969 0.025458,-0.010249 0.05323,-0.038352 0.029756,-0.097863 C 8.4532685,9.7714468 8.4092965,9.7840108 8.378549,9.7816958 8.329617,9.7787158 8.2578731,9.7654958 8.21886,9.6659791 8.167945,9.5373683 8.20795,9.456036 8.268784,9.4312396 c 0.057858,-0.022482 0.1259659,0.019176 0.1712607,0.131917 z" /><path
     style="fill:#ffffff;stroke-width:0.33061907"
     inkscape:connector-curvature="0"
     id="path875"
     d="m 8.6744526,9.5674547 c 0.033392,-0.018845 0.088936,-0.016862 0.044303,-0.1140636 -0.044634,-0.097202 -0.079679,-0.05356 -0.1153861,-0.040997 z m 0.077034,0.3306191 -0.2525929,-0.5484971 0.089928,-0.041327 c 0.06414,-0.028764 0.1322476,-0.024796 0.1963877,0.1140635 0.045625,0.099516 0.040005,0.1815099 -0.023143,0.2152331 l -0.045295,0.020829 0.097202,0.2109349 z" /><rect
     style="fill:#ffffff;stroke-width:0.3306269"
     id="rect877"
     height="0.6040554"
     width="0.068770401"
     transform="rotate(-26.813594)"
     y="12.187166"
     x="3.7165403" /><polygon
     style="fill:#ffffff"
     transform="scale(0.33061907)"
     id="polygon879"
     points="27.141,27.579 27.822,27.192 27.973,27.456 27.722,27.598 28.472,28.924 28.291,29.026 27.541,27.701 27.289,27.842 " /><path
     style="fill:#ffffff;stroke-width:0.33061907"
     inkscape:connector-curvature="0"
     id="path881"
     d="m 9.6190313,9.1581483 -0.17622,-0.1940734 -6.612e-4,6.612e-4 0.099186,0.2423438 z M 9.5747283,9.4570279 9.3452787,8.88671 l 0.068769,-0.043972 0.4202168,0.4479889 -0.058189,0.037029 -0.088606,-0.095218 -0.1064593,0.068769 0.048932,0.1206759 z" /><polygon
     style="fill:#ffffff"
     transform="scale(0.33061907)"
     id="polygon883"
     points="29.198,26.228 30.099,27.457 30.437,27.208 30.618,27.453 30.111,27.824 29.031,26.352 " /><path
     style="fill:#ffffff;stroke-width:0.33061907"
     inkscape:connector-curvature="0"
     id="path885"
     d="m 10.095123,8.5415437 c -0.04166,-0.044633 -0.07472,-0.056205 -0.099847,-0.035376 -0.019176,0.016862 -0.022482,0.052568 0.011902,0.092904 0.04265,0.049262 0.07108,0.035046 0.09985,0.02645 0.05224,-0.013886 0.123652,-0.040997 0.20267,0.051246 0.09687,0.1140636 0.07869,0.1980409 0.02645,0.2426744 -0.05621,0.047609 -0.129933,0.040336 -0.227135,-0.076373 l 0.05356,-0.045625 c 0.041,0.052568 0.08563,0.073728 0.113072,0.050254 0.02083,-0.017523 0.03802,-0.05323 -0.0036,-0.1021613 -0.04596,-0.054221 -0.08398,-0.028433 -0.114064,-0.020498 -0.04761,0.013225 -0.118692,0.023474 -0.1887831,-0.057858 C 9.8798897,8.5623727 9.8911308,8.4721137 9.9410543,8.4294639 9.9883328,8.389459 10.06669,8.4063205 10.145046,8.4982326 Z" /><path
     style="stroke-width:0.33061907"
     inkscape:connector-curvature="0"
     id="path887"
     d="m 2.5441138,6.0175977 c 0,0.1048063 -0.0043,0.2208536 -0.0043,0.345497 0.00231,0.4903081 0.064801,1.1016227 0.7419092,1.6590465 0.4109595,0.3349171 0.7660444,0.4188943 1.0824469,0.451295 0.3154106,0.033062 0.5934612,-0.0043 0.8417561,0.1193535 0.2172167,0.1130717 0.3659953,0.2228372 0.4631973,0.3580604 0.012233,0.016862 0.024135,0.034384 0.034384,0.052899 0.00397,-0.00694 0.0076,-0.012563 0.011572,-0.019176 C 5.8109608,8.8348029 5.9660212,8.7154494 6.2014219,8.5927897 6.4500475,8.4691382 6.7277675,8.5064981 7.0435087,8.4734362 7.3595806,8.4410355 7.7149961,8.3570583 8.1256249,8.0221412 8.8027328,7.4647174 8.8652198,6.8534028 8.8678648,6.3630947 c 0,-0.1246434 -0.00496,-0.2410213 -0.00496,-0.345497 V 2.8753941 0.21688611 H 5.7035096 5.5041463 2.5441138 Z M 5.5937441,9.419668 C 5.5864705,9.2695669 5.5600209,9.1700506 5.4935665,9.0771466 5.4271121,8.9835814 5.3094117,8.8900162 5.106081,8.7845488 4.9496981,8.6985878 4.6838804,8.7187556 4.3430121,8.6883386 4.0028051,8.6562686 3.5892007,8.5544379 3.144518,8.189765 2.4022782,7.5853934 2.3202847,6.8705949 2.3232602,6.3630947 c 0,-0.1296027 0.00463,-0.2469725 0.00463,-0.345497 V 2.8753941 0.10877367 0 H 5.5041463 5.7035096 9.079461 V 0.10877367 6.0175977 c 0,0.098525 0.00496,0.2158943 0.00496,0.345497 C 9.0867346,6.8705949 9.0050717,7.5853934 8.2625012,8.189765 7.8184798,8.5544379 7.4045447,8.6562686 7.0643377,8.6883386 6.7234695,8.7187556 6.4573211,8.6985878 6.3015995,8.7845488 6.080746,8.8992736 5.9620537,8.9987899 5.8979136,9.1009512 5.8341042,9.20179 5.8122833,9.3194904 5.8116221,9.4983553 l -0.2158943,0.00198 z" /><path
     style="fill:#ffffff;stroke-width:0.33061907"
     inkscape:connector-curvature="0"
     id="path889"
     d="M 4.7946378,5.2482472 H 5.2237813 5.3388368 5.5639884 V 5.3821479 H 5.3388368 v 0.4033552 c 0,0.044634 0.014547,0.066785 0.046617,0.066785 h 0.057858 c 0.014547,0 0.025458,-0.00496 0.033392,-0.018845 0.00694,-0.0086 0.011902,-0.04298 0.018845,-0.1031531 l 0.120676,0.04827 c -0.00959,0.083977 -0.024135,0.1388601 -0.046948,0.1666321 -0.022813,0.027111 -0.052238,0.040997 -0.088606,0.040997 h -0.120676 c -0.09092,0 -0.1362151,-0.039344 -0.1362151,-0.1219984 V 5.3821479 H 5.0974849 C 5.0872357,5.4955502 5.0726884,5.582503 5.0535125,5.6463125 5.0346672,5.7273142 5.0092096,5.7904624 4.9744946,5.8370797 4.936804,5.9022117 4.8567942,5.9554414 4.7318202,6.0000749 L 4.6584227,5.8641905 c 0.077365,-0.016862 0.1431581,-0.049924 0.197049,-0.099516 0.042319,-0.044303 0.073397,-0.1044756 0.093565,-0.1798567 0.013555,-0.05356 0.02149,-0.1203454 0.027111,-0.2026695 H 4.7946378 Z M 4.9678822,4.9460613 H 5.3765274 V 5.079962 H 4.9678822 Z m -0.2724301,-0.4430295 0.1048062,0.1015 -0.1461336,0.4152576 c 0.061495,0.1286108 0.092243,0.2469724 0.093565,0.3550849 0,0.091581 -0.017523,0.1629952 -0.054552,0.2165555 -0.034715,0.051576 -0.080671,0.077365 -0.1395212,0.079018 L 4.506338,5.522661 C 4.559237,5.512412 4.592629,5.493236 4.6101523,5.464472 c 0.014547,-0.024135 0.02149,-0.060503 0.022813,-0.1081124 0,-0.081002 -0.032401,-0.1854773 -0.099186,-0.3157412 L 4.6488348,4.6574309 H 4.5013787 V 6.0123078 H 4.3859926 V 4.5235301 h 0.057528 0.057858 0.1725831 c 0.00793,-0.013886 0.014547,-0.020498 0.02149,-0.020498 m 0.4129432,-0.012233 0.1193535,0.013886 c 0.02116,0.00132 0.03207,0.010249 0.033393,0.025458 0,0.00893 -0.00793,0.022813 -0.02678,0.041658 v 0.072075 H 5.5530779 V 5.0333448 H 5.4380225 V 4.7794293 H 5.2343612 5.1083953 4.9103545 V 5.0333448 H 4.7946378 V 4.6438755 h 0.3137575 z" /><path
     style="fill:#ffffff;stroke-width:0.33061907"
     inkscape:connector-curvature="0"
     id="path891"
     d="M 6.5740296,2.9256482 H 6.809761 V 2.7986904 H 6.5740296 Z m 0,0.261189 H 6.809761 V 3.0529365 H 6.5740296 Z M 6.4480638,3.0529365 H 6.212663 v 0.1339007 h 0.2354008 z m 0,-0.2542461 H 6.212663 v 0.1269578 h 0.2354008 z m 0,-0.5508113 0.1193535,0.015539 c 0.02149,0 0.03207,0.00827 0.03207,0.025458 0,0.0086 -0.00827,0.020498 -0.025458,0.039344 v 0.074059 h 0.502541 v 0.1408437 h -0.502541 v 0.1216678 h 0.356738 V 3.320738 H 6.6143652 c 0.07505,0.077034 0.1517541,0.1355538 0.2317639,0.1785343 0.070091,0.036368 0.1679545,0.072405 0.2935898,0.1100961 L 7.0140836,3.7564939 C 6.9102692,3.7121909 6.8289369,3.6659043 6.7671112,3.6176339 6.7003261,3.5716778 6.6358554,3.5065459 6.5740296,3.4202543 V 3.8378262 H 6.4480638 V 3.4252136 c -0.06414,0.084638 -0.1282802,0.150101 -0.1927509,0.1993633 -0.070753,0.051577 -0.1567135,0.094557 -0.2568911,0.131917 L 5.8883257,3.6159808 c 0.1233209,-0.038021 0.229119,-0.083977 0.3200392,-0.13886 0.056205,-0.031078 0.116378,-0.082655 0.1821712,-0.1563828 H 6.0933095 V 2.6647897 H 6.4480638 V 2.5431219 H 5.9455228 V 2.4022782 h 0.502541 z" /><path
     style="fill:#ffffff;stroke-width:0.33061907"
     inkscape:connector-curvature="0"
     id="path893"
     d="m 6.3677233,4.8276997 h 0.28301 V 4.6904928 h -0.28301 z M 6.4510393,5.106081 V 4.954988 H 6.3677233 6.27515 v 0.151093 z m 0.2962347,0 V 4.954988 H 6.6507333 6.5713847 V 5.106081 Z M 6.4510393,5.2399817 H 6.27515 V 5.40463 h 0.1758893 z m 0.2962347,0 H 6.5713847 V 5.40463 H 6.747274 Z M 6.2470474,4.4484796 6.361111,4.4607125 c 0.02116,0.00165 0.03207,0.00827 0.03207,0.024135 0,0.00793 -0.00793,0.020168 -0.025458,0.039013 v 0.032401 h 0.28301 V 4.4484796 l 0.1137329,0.012233 c 0.02149,0.00165 0.03207,0.00827 0.03207,0.024135 0,0.00793 -0.00827,0.020168 -0.02678,0.039013 v 0.032401 H 7.0871504 V 4.6904928 H 6.7697561 V 4.8276997 H 7.0445006 V 4.954988 H 6.8619988 V 5.106081 H 7.1129387 V 5.2399817 H 6.8619988 V 5.40463 H 7.0405331 V 5.5319183 H 6.5713847 v 0.1236516 h 0.541554 V 5.7894706 H 6.5713847 V 5.990487 H 6.4510393 V 5.7894706 H 5.9038648 V 5.6555699 H 6.4510393 V 5.5319183 H 5.9726335 V 5.40463 H 6.1600946 V 5.2399817 H 5.9038648 V 5.106081 H 6.1600946 V 4.954988 H 5.9567638 V 4.8276997 H 6.2470474 V 4.6904928 H 5.9200651 V 4.5562614 h 0.3269823 z" /><path
     style="fill:#ffffff;stroke-width:0.33061907"
     inkscape:connector-curvature="0"
     id="path895"
     d="m 4.3737597,3.5548163 h 1.192543 V 3.709546 H 4.3737597 Z M 4.5195627,2.9435016 H 5.4307489 V 3.0912883 H 4.5195627 Z M 4.4517858,2.3804573 H 5.5034851 V 2.5279134 H 4.4517858 Z" /><path
     style="stroke-width:0.33061907"
     inkscape:connector-curvature="0"
     id="path897"
     d="m 1.3092515,12.184635 c 0,-0.08761 -0.062156,-0.1339 -0.111088,-0.16035 l -0.052238,-0.0281 c -0.039674,-0.02017 -0.072075,-0.05356 -0.072075,-0.09026 0,-0.04 0.028433,-0.07439 0.080671,-0.07439 0.056536,0 0.091251,0.05819 0.104145,0.09853 0.0076,0.0083 0.027111,0.0076 0.030748,-0.002 0,-0.05356 -0.00793,-0.09654 -0.013886,-0.114064 -0.00926,-0.0017 -0.016862,-0.0033 -0.027111,-0.0063 -0.031739,-0.0096 -0.06414,-0.01289 -0.089928,-0.01289 -0.1147248,0 -0.18349356,0.06216 -0.18349356,0.152085 6.6124e-4,0.07902 0.0621564,0.126627 0.11935346,0.155391 0.047279,0.0238 0.1074512,0.06216 0.1074512,0.126958 0,0.03934 -0.027111,0.08034 -0.0853,0.08034 -0.067116,0 -0.12034533,-0.07373 -0.13588443,-0.124974 -0.006282,-0.0089 -0.0244658,-0.0079 -0.0300863,0.0023 0,0.05389 0.009919,0.111418 0.025127,0.128941 0.0168616,0.0096 0.0614951,0.03042 0.13456193,0.03042 0.1193535,0 0.1990327,-0.06381 0.1990327,-0.161673" /><path
     style="stroke-width:0.33061907"
     inkscape:connector-curvature="0"
     id="path899"
     d="m 2.1285256,11.924438 c 0,-0.07538 0.00463,-0.081 0.041327,-0.08695 l 0.021821,-0.0043 c 0.00661,-0.0046 0.00661,-0.02281 0,-0.0281 -0.042319,0.002 -0.081663,0.0026 -0.1190228,0.0026 -0.038021,0 -0.077695,-6.62e-4 -0.1203454,-0.0026 -0.00628,0.0053 -0.00628,0.02347 0,0.0281 l 0.022482,0.0043 c 0.035707,0.006 0.040666,0.01157 0.040666,0.08695 v 0.292598 c 0,0.07538 -0.00496,0.08034 -0.040666,0.08695 l -0.022482,0.004 c -0.00628,0.0046 -0.00628,0.02314 0,0.02777 0.04265,-0.002 0.082324,-0.0023 0.1203454,-0.0023 0.03736,0 0.075712,3.3e-4 0.1183616,0.0023 0.00628,-0.0046 0.00727,-0.02314 6.612e-4,-0.02777 l -0.021821,-0.004 c -0.036699,-0.0066 -0.041327,-0.01157 -0.041327,-0.08695 z" /><path
     style="stroke-width:0.33061907"
     inkscape:connector-curvature="0"
     id="path901"
     d="m 3.327681,12.007754 c 0,-0.06447 0.00298,-0.124313 0.011572,-0.145803 0.00727,-0.01653 0.021821,-0.02182 0.042981,-0.02612 l 0.014217,-0.0026 c 0.00595,-0.0063 0.00463,-0.02281 0,-0.0281 -0.030747,0.002 -0.059181,0.0026 -0.088606,0.0026 -0.032401,0 -0.063479,-6.62e-4 -0.1061287,-0.0026 -0.00463,0.0053 -0.00661,0.02182 0,0.0281 l 0.02116,0.0033 c 0.02149,0.0036 0.039013,0.0089 0.046287,0.02546 0.0086,0.02149 0.011572,0.08133 0.011572,0.145803 v 0.109766 c 0,0.01455 0,0.02777 -0.00298,0.03571 -0.018184,-0.01818 -0.040335,-0.04596 -0.076042,-0.08761 L 3.1352593,11.9873 c -0.071083,-0.08563 -0.1223291,-0.145803 -0.130264,-0.182171 -0.016531,0.002 -0.039344,0.0026 -0.066454,0.0026 -0.03207,0 -0.072075,-6.62e-4 -0.1091043,-0.0026 -0.00793,0.0026 -0.0086,0.02182 -0.00331,0.0281 l 0.022482,0.0033 c 0.027111,0.0056 0.039344,0.01356 0.044634,0.02711 0.00595,0.01091 0.00595,0.0238 0.00595,0.06778 v 0.202008 c 0,0.06447 -0.00331,0.124313 -0.011241,0.146134 -0.00727,0.01653 -0.022152,0.02149 -0.043642,0.02579 l -0.013225,0.0026 c -0.00661,0.0063 -0.00496,0.02314 0,0.02777 0.030086,-0.002 0.059181,-0.0026 0.088275,-0.0026 0.031739,0 0.063148,6.61e-4 0.1061287,0.0026 0.00463,-0.0046 0.00628,-0.02149 0,-0.02777 l -0.022151,-0.0033 c -0.020829,-0.0036 -0.038682,-0.0086 -0.045625,-0.02513 -0.00893,-0.02182 -0.011902,-0.08166 -0.011902,-0.146134 v -0.154068 c 0,-0.02942 0,-0.04331 0.00364,-0.05125 0.014217,0.01157 0.040997,0.04463 0.086292,0.101831 l 0.1828324,0.227796 c 0.037029,0.04629 0.062818,0.08695 0.06381,0.08695 0.018845,0 0.041327,-0.0089 0.046617,-0.01884 -0.00132,-0.02546 -0.00132,-0.07604 -0.00132,-0.12795 V 12.00775 Z" /><path
     style="stroke-width:0.33061907"
     inkscape:connector-curvature="0"
     id="path903"
     d="m 4.3426815,11.794835 c -0.081994,0 -0.1626646,0.02414 -0.2185392,0.07108 -0.054883,0.04529 -0.095879,0.113732 -0.095879,0.211265 0,0.09885 0.043642,0.164979 0.1005082,0.20829 0.055875,0.04265 0.1348926,0.06083 0.212588,0.06083 0.061826,0 0.1177004,-0.01752 0.1606809,-0.02976 0.01091,-0.01818 0.024135,-0.06612 0.030086,-0.124643 -0.00529,-0.0099 -0.024135,-0.01256 -0.030086,-0.006 -0.02149,0.05422 -0.065793,0.123321 -0.1616727,0.123321 -0.094888,0 -0.1854773,-0.0853 -0.1854773,-0.243997 0,-0.157705 0.093896,-0.233748 0.1818405,-0.233748 0.077034,0 0.1272883,0.04001 0.1484479,0.114064 0.00562,0.0073 0.027111,0.0043 0.030086,-0.006 -0.00727,-0.04596 -0.00959,-0.109766 -0.00959,-0.123983 -0.023805,-0.0017 -0.082324,-0.02083 -0.1629952,-0.02083" /><path
     style="stroke-width:0.33061907"
     inkscape:connector-curvature="0"
     id="path905"
     d="m 5.3378449,11.875506 c 0,-0.02909 0,-0.03075 0.02645,-0.03075 h 0.062818 c 0.038682,0 0.062487,0.0096 0.077365,0.0248 0.010249,0.01058 0.02116,0.03472 0.030086,0.06282 0.00793,0.0069 0.02645,0.0053 0.029425,-0.0036 -0.00397,-0.05323 -0.00959,-0.110427 -0.010249,-0.123321 -0.010249,0.0017 -0.055544,0.0026 -0.1061287,0.0026 H 5.2799866 c -0.038021,0 -0.076704,-9.92e-4 -0.1140636,-0.0026 -0.0076,0.005 -0.00827,0.02314 -0.00132,0.0281 l 0.019507,0.004 c 0.036037,0.0063 0.040335,0.01157 0.040335,0.08431 v 0.296565 c 0,0.07406 -0.0043,0.07902 -0.040335,0.08431 l -0.037029,0.0053 c -0.00595,0.0043 -0.00595,0.02314 0,0.02777 0.059181,-0.0017 0.097863,-0.0023 0.1358845,-0.0023 h 0.1031531 c 0.064801,0 0.1405131,6.61e-4 0.1828324,0.0023 0.01091,-0.02149 0.029756,-0.08563 0.033062,-0.127619 -0.00331,-0.0093 -0.022813,-0.01256 -0.029425,-0.0036 -0.043642,0.08993 -0.070091,0.09224 -0.13886,0.09224 -0.057858,0 -0.073398,-0.0063 -0.083647,-0.0205 -0.00926,-0.01356 -0.012233,-0.03868 -0.012233,-0.07571 v -0.09456 c 0,-0.02413 6.613e-4,-0.0248 0.021821,-0.0248 h 0.054883 c 0.040997,0 0.049923,0.0063 0.05852,0.0443 l 0.00364,0.01984 c 0.00595,0.0076 0.025788,0.0066 0.029425,-6.62e-4 -0.00165,-0.02513 -0.00231,-0.05389 -0.00231,-0.08398 0,-0.03042 6.612e-4,-0.05918 0.00231,-0.08464 -0.00364,-0.0073 -0.023474,-0.0073 -0.029425,-9.92e-4 l -0.00364,0.02017 c -0.0086,0.03835 -0.017523,0.04364 -0.05852,0.04364 H 5.359669 c -0.02116,0 -0.021821,-0.0017 -0.021821,-0.02347 v -0.139852 z" /><path
     style="stroke-width:0.33061907"
     inkscape:connector-curvature="0"
     id="path907"
     d="m 7.2560968,11.924438 c 0,-0.04034 6.612e-4,-0.0767 0.00264,-0.09522 -0.00198,-0.0066 -0.00694,-0.0086 -0.011572,-0.0086 -0.00496,0 -0.035707,0.01521 -0.070091,0.02546 -0.031409,0.0089 -0.068769,0.01752 -0.1008388,0.02215 -0.00661,0.005 -0.00595,0.02413 0.00132,0.02843 l 0.036368,0.0043 c 0.034715,0.0036 0.037691,0.01686 0.037691,0.06943 v 0.260528 c 0,0.06348 -0.00463,0.07141 -0.043311,0.07439 l -0.03207,0.0026 c -0.00727,0.0046 -0.00661,0.02513 0.00132,0.02777 0.028433,-0.002 0.076042,-0.0026 0.1279496,-0.0026 0.049262,0 0.096541,6.61e-4 0.1253046,0.0026 0.00793,-0.0026 0.0086,-0.02314 0.00132,-0.02777 l -0.03207,-0.0026 c -0.039013,-0.003 -0.043972,-0.01091 -0.043972,-0.07439 v -0.306484 z" /><path
     style="stroke-width:0.33061907"
     inkscape:connector-curvature="0"
     id="path909"
     d="m 8.2089409,11.860298 c 0.03174,0 0.065793,0.03141 0.065793,0.08596 0,0.03835 -0.013555,0.07174 -0.038021,0.08728 -0.065132,-0.02777 -0.091912,-0.0615 -0.091912,-0.09886 0,-0.04298 0.027772,-0.07439 0.06414,-0.07439 m 0.00529,0.447658 c -0.051907,0 -0.084308,-0.0453 -0.084308,-0.09852 0,-0.04397 0.012233,-0.07505 0.040335,-0.103484 0.065793,0.03075 0.1094349,0.06579 0.1094349,0.128611 0,0.04596 -0.031078,0.0734 -0.065462,0.0734 m -0.012894,0.0367 c 0.1239822,0 0.1818405,-0.05984 0.1818405,-0.136546 0,-0.0777 -0.046948,-0.120014 -0.1061287,-0.14977 0.041989,-0.01951 0.086292,-0.05356 0.086292,-0.108443 0,-0.0777 -0.062818,-0.125966 -0.1524154,-0.125966 -0.098194,0 -0.1620034,0.05885 -0.1620034,0.138529 0,0.05488 0.034384,0.09356 0.083316,0.121007 -0.062156,0.0238 -0.104145,0.06745 -0.104145,0.130594 0,0.08993 0.080671,0.130595 0.1732444,0.130595" /><path
     style="stroke-width:0.33061907"
     inkscape:connector-curvature="0"
     id="path911"
     d="m 9.1373193,11.83451 c -0.049262,0 -0.069099,-6.62e-4 -0.094888,-0.0023 -0.00727,0.03075 -0.017523,0.081 -0.031078,0.120015 0.00331,0.0089 0.020498,0.01223 0.02678,0.0053 0.018515,-0.03306 0.02645,-0.03901 0.072406,-0.03901 H 9.278163 c 0.011572,0 0.022813,0.0023 0.022813,0.01256 0,0.01389 -0.00893,0.03207 -0.026119,0.06315 L 9.0668974,12.35821 c 0.00132,0.01752 0.024796,0.02711 0.037691,0.0248 l 0.2277966,-0.406 c 0.033393,-0.05918 0.058189,-0.102492 0.078357,-0.131587 9.918e-4,-0.005 -0.00132,-0.01157 -0.00694,-0.01323 -0.010249,0.0017 -0.065132,0.0023 -0.1147248,0.0023 H 9.1373193 Z" /><path
     style="stroke-width:0.33061907"
     inkscape:connector-curvature="0"
     id="path913"
     d="m 10.146038,12.084458 c 0,-0.07108 0.0076,-0.22416 0.06745,-0.22416 0.05984,0 0.06745,0.153077 0.06745,0.22416 0,0.07042 -0.0076,0.223498 -0.06745,0.223498 -0.05984,0 -0.06745,-0.153076 -0.06745,-0.223498 m 0.06745,-0.260528 c -0.127949,0 -0.182832,0.136876 -0.182832,0.260528 0,0.127949 0.05488,0.260197 0.182832,0.260197 0.12795,0 0.182833,-0.132248 0.182833,-0.260197 0,-0.123652 -0.05488,-0.260528 -0.182833,-0.260528" /><rect
     style="stroke-width:0.33061907"
     id="rect915"
     height="0.089928396"
     width="9.3720589"
     y="11.399415"
     x="0.97631812" /></g><g
   aria-label="東華學院"
   transform="matrix(0.93990435,0,0,1.063938,0.04437801,-13.690603)"
   style="font-style:normal;font-variant:normal;font-weight:normal;font-stretch:normal;font-size:4.07701969px;line-height:1.25;font-family:Helvetica;-inkscape-font-specification:Helvetica;letter-spacing:0px;word-spacing:0px;fill:#231f20;fill-opacity:1;stroke:none;stroke-width:0.10192548"
   id="text990"><path
     style="font-style:normal;font-variant:normal;font-weight:normal;font-stretch:normal;font-family:DFHeiBold-B5;-inkscape-font-specification:DFHeiBold-B5;letter-spacing:0.43000001px;fill:#231f20;fill-opacity:1;stroke-width:0.10192548"
     d="m 15.777344,16.654297 v 0.394531 h -1.435547 v 0.355469 h 1.435547 v 0.300781 h -1.009766 v 1.660156 h 0.822266 c -0.174636,0.152497 -0.33664,0.272913 -0.486328,0.363282 -0.261954,0.146849 -0.570979,0.276581 -0.927735,0.386718 l 0.306641,0.351563 c 0.294386,-0.104489 0.545427,-0.226857 0.75,-0.365235 0.179625,-0.127081 0.360306,-0.288647 0.544922,-0.486328 v 0.863282 h 0.355468 v -0.888672 c 0.172141,0.194857 0.346849,0.353176 0.521485,0.474609 0.179626,0.132729 0.424478,0.266791 0.736328,0.402344 L 17.75,20.085938 c -0.371725,-0.110137 -0.662073,-0.21886 -0.869141,-0.326172 -0.192099,-0.09884 -0.383531,-0.230738 -0.578125,-0.394532 h 0.859375 v -1.660156 h -1.029297 v -0.300781 h 1.4375 v -0.355469 h -1.4375 v -0.199219 c 0.05239,-0.04519 0.08008,-0.08201 0.08008,-0.107421 0,-0.0367 -0.03279,-0.05576 -0.09766,-0.05859 z m 7.896484,0.01563 c -0.08732,0.05648 -0.182327,0.102829 -0.287109,0.136719 -0.07235,0.02259 -0.152917,0.04057 -0.240235,0.05469 l -0.167968,-0.09766 v 1.572266 h -0.244141 v 0.859374 h 0.330078 v -0.533203 h 2.728516 v 0.533203 h 0.328125 V 18.335938 H 25.867188 V 16.78125 h -0.837891 v 0.318359 h 0.507812 v 0.222657 h -0.49414 v 0.285156 h 0.49414 v 0.220703 h -0.49414 v 0.291016 h 0.49414 v 0.216797 H 23.306641 V 18.119141 H 23.8125 V 17.828125 H 23.306641 V 17.607422 H 23.8125 v -0.285156 h -0.505859 v -0.177735 c 0.154677,-0.04236 0.296593,-0.08351 0.423828,-0.123047 0.03243,-0.01129 0.05534,-0.01563 0.07031,-0.01563 l 0.08594,0.02148 c 0.02245,0 0.03516,-0.01148 0.03516,-0.03125 0,-0.03389 -0.01129,-0.06139 -0.03125,-0.08398 z m -4.240234,0.04687 v 0.275391 h -0.935547 v 0.339843 h 0.935547 v 0.253907 h 0.34375 v -0.253907 h 0.808594 v 0.253907 h 0.349609 v -0.253907 h 0.900391 v -0.339843 h -0.900391 v -0.08789 c 0.04491,-0.03954 0.06641,-0.07116 0.06641,-0.09375 0,-0.0367 -0.02856,-0.05576 -0.08594,-0.05859 l -0.330078,-0.03516 v 0.275391 h -0.808594 v -0.08789 c 0.0499,-0.03954 0.07617,-0.07116 0.07617,-0.09375 0,-0.0367 -0.03138,-0.05576 -0.09375,-0.05859 z m 5.240234,0 c -0.07484,0.09319 -0.155411,0.175491 -0.240234,0.246094 -0.102287,-0.0706 -0.205766,-0.137092 -0.310547,-0.199219 l -0.171875,0.195312 c 0.08981,0.04801 0.18113,0.100853 0.273437,0.160157 -0.08233,0.06213 -0.179291,0.121253 -0.289062,0.177734 l 0.171875,0.205078 c 0.129729,-0.07342 0.2445,-0.146194 0.341797,-0.216797 0.08981,0.0706 0.18113,0.147701 0.273437,0.232422 l 0.185547,-0.195312 c -0.08233,-0.0706 -0.165177,-0.139259 -0.25,-0.207032 0.05987,-0.048 0.125458,-0.106048 0.195313,-0.173828 0.04491,-0.01412 0.06641,-0.03534 0.06641,-0.06641 0,-0.01129 -0.0093,-0.02386 -0.0293,-0.03516 z m 4.425781,0 v 0.462891 h -0.871093 v 0.960937 h 0.328125 v -0.623047 h 1.453125 v 0.623047 h 0.335937 v -0.960937 h -0.886719 v -0.267579 c 0.0474,-0.04236 0.07227,-0.07507 0.07227,-0.09766 0,-0.03952 -0.02997,-0.05966 -0.08984,-0.0625 z m -1.169921,0.101562 c -0.01,0 -0.02638,0.01689 -0.04883,0.05078 h -0.68164 -0.164063 v 3.796875 h 0.328125 v -3.453125 h 0.445313 l -0.306641,0.957031 c 0.212058,0.296522 0.31836,0.534977 0.318359,0.71289 0,0.144026 -0.02432,0.25383 -0.07422,0.330079 -0.04241,0.08754 -0.14589,0.146667 -0.310547,0.177734 l 0.138672,0.376953 c 0.172141,0 0.310692,-0.07277 0.417969,-0.216797 0.107276,-0.155321 0.162109,-0.364319 0.162109,-0.626953 0,-0.242866 -0.105432,-0.506872 -0.3125,-0.794922 L 28.2207,17.078123 Z m -3.791016,0.734375 -0.175781,0.185547 c 0.0973,0.05366 0.196541,0.121229 0.298828,0.203125 -0.09231,0.05931 -0.195786,0.12255 -0.310547,0.1875 l 0.171875,0.199219 c 0.132224,-0.0706 0.246452,-0.142288 0.34375,-0.212891 0.07983,0.0593 0.160401,0.130995 0.240234,0.212891 l 0.1875,-0.195313 c -0.07235,-0.05931 -0.143577,-0.12255 -0.210937,-0.1875 0.05489,-0.04518 0.116234,-0.103225 0.183594,-0.173828 0.04491,-0.01129 0.06836,-0.03143 0.06836,-0.0625 0,-0.01412 -0.01129,-0.02885 -0.03125,-0.04297 L 24.6875,17.552734 c -0.07235,0.08755 -0.147271,0.159446 -0.224609,0.21875 -0.104782,-0.0819 -0.211953,-0.1538 -0.324219,-0.21875 z M 18.8125,17.679688 v 0.316406 h 0.494141 v 0.382812 h -0.658203 v 0.337891 h 0.658203 v 0.419922 h -0.564453 v 0.316406 h 1.291015 v 0.314453 h -1.205078 v 0.34375 h 1.205078 v 0.507813 h 0.34375 v -0.507813 h 1.179688 v -0.34375 h -1.179688 v -0.314453 h 1.265625 v -0.316406 h -0.535156 v -0.419922 h 0.628906 v -0.337891 h -0.628906 v -0.382812 h 0.429687 v -0.316406 z m 9.910156,0.291015 v 0.339844 h 1.123047 v -0.339844 z m -9.082031,0.02539 h 0.392578 v 0.382812 h -0.392578 z m 0.736328,0 h 0.400391 v 0.382812 h -0.400391 z m -5.265625,0.04687 h 0.666016 v 0.326172 h -0.666016 z m 1.021484,0 h 0.681641 v 0.326172 H 16.132812 Z M 15.111328,18.6914 h 0.666016 v 0.333985 h -0.666016 z m 1.021484,0 h 0.681641 v 0.333985 h -0.681641 z m 12.095704,0.0078 v 0.339843 h 0.552734 c -0.01247,0.389715 -0.07469,0.660003 -0.189453,0.8125 -0.104782,0.160969 -0.323031,0.307595 -0.652344,0.4375 l 0.236328,0.294922 c 0.381704,-0.177913 0.626557,-0.375429 0.736328,-0.595703 0.117255,-0.20333 0.18425,-0.519968 0.199219,-0.949219 h 0.289063 v 1.240235 c 0,0.203329 0.12639,0.304687 0.380859,0.304687 h 0.277344 c 0.11476,0 0.207489,-0.0392 0.277344,-0.121093 0.06985,-0.07907 0.11991,-0.244756 0.152343,-0.496094 L 30.152344,19.85545 c -0.02246,0.189206 -0.04591,0.300964 -0.06836,0.332031 -0.02495,0.03954 -0.06567,0.05859 -0.123046,0.05859 h -0.105469 c -0.08482,0 -0.126953,-0.05588 -0.126953,-0.166016 v -1.041016 h 0.644531 v -0.339843 z m -8.587891,0.01758 h 0.392578 v 0.419922 h -0.392578 z m 0.736328,0 h 0.400391 v 0.419922 h -0.400391 z m 4.693359,0.09766 -0.08008,0.03711 H 23.51367 v 0.310547 h 1.226562 l -0.265625,0.261719 -0.197265,-0.0293 v 0.203125 H 22.767578 V 19.9375 h 1.509766 v 0.138672 c -0.0075,0.129905 -0.07166,0.195312 -0.191406,0.195312 h -0.34375 l 0.134765,0.38086 c 0.319335,0 0.513589,-0.04223 0.585938,-0.126953 0.0948,-0.07907 0.142578,-0.204688 0.142578,-0.376953 V 19.9375 h 1.466797 v -0.339844 h -1.357422 l 0.568359,-0.460937 c 0.0499,-0.03671 0.07422,-0.07158 0.07422,-0.105469 0,-0.01412 -0.0093,-0.02993 -0.0293,-0.04687 L 25.15625,18.847656 c -0.02744,-0.02259 -0.056,-0.0332 -0.08594,-0.0332 z m -4.179687,3.085938 c -0.345995,0 -0.627857,0.12099 -0.84375,0.363281 -0.181954,0.203637 -0.271484,0.443463 -0.271484,0.71875 0,0.200809 0.04844,0.387077 0.146484,0.560547 0.09899,0.173468 0.233588,0.308067 0.402344,0.402343 0.169697,0.09333 0.362231,0.138672 0.578125,0.138672 0.201751,0 0.377443,-0.04312 0.527344,-0.128906 0.149899,-0.08579 0.270957,-0.209949 0.365234,-0.373047 0.09428,-0.163098 0.142578,-0.335625 0.142578,-0.517578 l -0.0039,-0.08789 h -1.046875 v 0.373047 h 0.603515 c -0.05751,0.122562 -0.134239,0.212025 -0.228515,0.269532 -0.09333,0.05751 -0.207049,0.08594 -0.34375,0.08594 -0.210236,0 -0.38795,-0.06946 -0.53125,-0.208984 -0.1433,-0.13953 -0.214844,-0.308957 -0.214844,-0.509766 0,-0.19421 0.06939,-0.360336 0.207031,-0.496094 0.138587,-0.135758 0.309092,-0.203125 0.513672,-0.203125 0.234749,0 0.440891,0.09263 0.617188,0.279297 l 0.279296,-0.27539 C 21.661789,22.153373 21.531367,22.056567 21.398438,22 21.240996,21.93306 21.071636,21.90039 20.890625,21.90039 Z m 10.873047,0 c -0.201751,0 -0.391052,0.04844 -0.566406,0.146484 -0.174412,0.09805 -0.308067,0.227459 -0.402344,0.388672 -0.09333,0.161213 -0.140625,0.345326 -0.140625,0.552734 0,0.32054 0.103071,0.58354 0.308594,0.789063 0.206465,0.20458 0.471553,0.30664 0.794921,0.30664 0.175354,0 0.33205,-0.02843 0.46875,-0.08594 0.136702,-0.05845 0.281877,-0.1626 0.435547,-0.3125 L 32.392578,23.40625 c -0.114075,0.113133 -0.219234,0.191008 -0.314453,0.234375 -0.09522,0.04243 -0.199436,0.06445 -0.314453,0.06445 -0.134815,0 -0.256884,-0.03247 -0.367188,-0.09375 -0.1103,-0.06128 -0.195519,-0.144478 -0.255859,-0.251953 -0.06033,-0.107475 -0.0918,-0.230554 -0.0918,-0.369141 0,-0.198923 0.06932,-0.366195 0.205078,-0.501953 0.136701,-0.135758 0.30303,-0.203125 0.501953,-0.203125 0.235692,0 0.448166,0.09795 0.636719,0.296875 l 0.277344,-0.263672 c -0.115017,-0.133872 -0.252782,-0.237954 -0.41211,-0.310547 -0.158384,-0.07259 -0.322557,-0.107421 -0.49414,-0.107421 z m 2.253906,0 c -0.194209,0 -0.376166,0.04844 -0.544922,0.146484 -0.167812,0.0971 -0.298369,0.229615 -0.394531,0.396484 -0.09616,0.16687 -0.144531,0.349905 -0.144531,0.548829 0,0.296971 0.102128,0.551685 0.308594,0.767578 0.206466,0.215893 0.467241,0.324218 0.779296,0.324218 0.297914,0 0.549462,-0.104216 0.757813,-0.314453 0.209293,-0.210236 0.314453,-0.467914 0.314453,-0.771484 0,-0.306399 -0.106237,-0.566232 -0.318359,-0.779297 -0.21118,-0.213065 -0.46367,-0.318359 -0.757813,-0.318359 z m 6.601563,0 c -0.345995,0 -0.625904,0.12099 -0.841797,0.363281 -0.181954,0.203637 -0.273438,0.443463 -0.273438,0.71875 0,0.200809 0.04844,0.387077 0.146485,0.560547 0.09899,0.173468 0.233588,0.308067 0.402343,0.402343 0.169698,0.09333 0.362232,0.138672 0.578125,0.138672 0.201752,0 0.377444,-0.04312 0.527344,-0.128906 0.149899,-0.08579 0.272911,-0.209949 0.367188,-0.373047 0.09428,-0.163098 0.140625,-0.335625 0.140625,-0.517578 l -0.002,-0.08789 h -1.046874 v 0.373047 h 0.601562 c -0.05751,0.122562 -0.132286,0.212025 -0.226562,0.269532 -0.09333,0.05751 -0.209003,0.08594 -0.345704,0.08594 -0.210236,0 -0.385996,-0.06946 -0.529296,-0.208984 -0.1433,-0.13953 -0.214844,-0.308957 -0.214844,-0.509766 0,-0.19421 0.06744,-0.360336 0.205078,-0.496094 0.138587,-0.135758 0.311045,-0.203125 0.515625,-0.203125 0.234749,0 0.440891,0.09263 0.617187,0.279297 l 0.277344,-0.27539 C 41.390305,22.153373 41.259882,22.056567 41.126953,22 40.969511,21.93306 40.800151,21.90039 40.619141,21.90039 Z m -26.232422,0.05078 v 0.390625 h 0.36914 v 1.691406 h 0.402344 v -1.691406 h 0.378906 v -0.390625 z m 1.427734,0 v 1.240234 c 0,0.247948 0.02419,0.42465 0.07227,0.529297 0.04808,0.103704 0.127035,0.190001 0.238281,0.259766 0.112189,0.06882 0.243689,0.103515 0.394531,0.103515 0.115017,0 0.216,-0.01691 0.302735,-0.05273 0.08673,-0.03677 0.164475,-0.09255 0.230468,-0.167969 0.06694,-0.07542 0.111199,-0.15525 0.134766,-0.236328 0.02357,-0.08108 0.03516,-0.226253 0.03516,-0.435547 V 21.951162 H 16.82618 v 1.296875 c 0,0.139529 -0.0095,0.235189 -0.0293,0.285156 -0.01886,0.04902 -0.05456,0.08904 -0.105469,0.121094 -0.04997,0.03205 -0.109923,0.04883 -0.179687,0.04883 -0.06599,0 -0.122782,-0.01469 -0.169922,-0.04297 -0.0462,-0.02923 -0.07887,-0.06715 -0.09961,-0.115234 -0.0198,-0.04808 -0.0293,-0.130134 -0.0293,-0.246094 v -1.347656 z m 1.890625,0 v 2.082031 h 0.396484 v -1.365234 l 0.890626,1.365234 h 0.380859 v -2.082031 h -0.396485 v 1.36914 l -0.892578,-1.36914 z m 5.285156,0 0.470704,2.082031 h 0.376953 l 0.376953,-1.345703 0.382812,1.345703 h 0.38086 l 0.466796,-2.082031 h -0.390624 l -0.296876,1.328125 -0.375,-1.328125 h -0.330078 l -0.371093,1.328125 -0.300782,-1.328125 z m 3.419922,0 -0.800781,2.082031 h 0.410156 l 0.169922,-0.429687 h 0.849609 l 0.16211,0.429687 h 0.412109 L 26.8125,21.951172 Z m 1.529297,0 v 2.082031 h 0.402344 V 23.12108 h 0.695312 v 0.912109 H 29.4375 v -2.082031 h -0.400391 v 0.785156 h -0.695312 v -0.785156 z m 7.548828,0 v 2.082031 h 0.972657 v -0.378906 h -0.578126 v -1.703125 z m 1.291016,0 v 2.082031 h 0.974609 v -0.378906 h -0.578125 v -1.703125 z m 1.294922,0 v 2.082031 h 1.134765 v -0.390625 h -0.742187 v -0.546875 h 0.742187 V 22.71483 h -0.742187 v -0.375 h 0.742187 v -0.388672 z m 3.976562,0 v 2.082031 H 43.1875 V 23.642578 H 42.445312 V 23.095703 H 43.1875 v -0.380859 h -0.742188 v -0.375 H 43.1875 v -0.388672 z m -8.037109,0.335937 c 0.190439,0 0.351446,0.06939 0.484375,0.207032 0.13293,0.136701 0.199219,0.303972 0.199219,0.501953 0,0.198923 -0.06528,0.366195 -0.197266,0.501953 -0.131987,0.135758 -0.290906,0.203125 -0.478516,0.203125 -0.165926,0 -0.31319,-0.0516 -0.441406,-0.15625 -0.164984,-0.133873 -0.248047,-0.31684 -0.248047,-0.546875 0,-0.206465 0.06622,-0.375893 0.197266,-0.509766 0.131045,-0.133872 0.292051,-0.201172 0.484375,-0.201172 z m -7.400391,0.216797 0.277344,0.712891 h -0.554687 z"
     transform="scale(1.063938,0.93990439)"
     id="path996"
     inkscape:connector-curvature="0" /></g><g
   aria-label="TUNG WAH COLLEGE"
   style="font-style:normal;font-variant:normal;font-weight:normal;font-stretch:normal;font-size:2.89617372px;line-height:1.25;font-family:'Courier New';-inkscape-font-specification:'Courier New';letter-spacing:0px;word-spacing:0px;fill:#231f20;fill-opacity:1;stroke:none;stroke-width:0.07240434"
   id="text994"
   transform="translate(0.04437801,-13.690603)" /></svg>